<?xml version="1.0" encoding="UTF-8" standalone="no"?>
<!-- Created with Inkscape (http://www.inkscape.org/) -->

<svg
   xmlns:dc="http://purl.org/dc/elements/1.1/"
   xmlns:cc="http://creativecommons.org/ns#"
   xmlns:rdf="http://www.w3.org/1999/02/22-rdf-syntax-ns#"
   xmlns:svg="http://www.w3.org/2000/svg"
   xmlns="http://www.w3.org/2000/svg"
   xmlns:sodipodi="http://sodipodi.sourceforge.net/DTD/sodipodi-0.dtd"
   xmlns:inkscape="http://www.inkscape.org/namespaces/inkscape"
   width="679.276mm"
   height="80mm"
   viewBox="0 0 679.27607 80"
   version="1.1"
   id="svg44"
   inkscape:version="0.92.2 (5c3e80d, 2017-08-06)"
   sodipodi:docname="creditcard_Default.svg">
  <defs
     id="defs38">
    <linearGradient
       gradientUnits="userSpaceOnUse"
       gradientTransform="scale(0.64136158,1.5591829)"
       x1="713.38519"
       y1="151.04114"
       x2="920.43939"
       y2="151.04114"
       id="a">
      <stop
         stop-color="#007B40"
         offset="0%"
         id="stop4" />
      <stop
         stop-color="#55B330"
         offset="100%"
         id="stop6" />
    </linearGradient>
    <linearGradient
       gradientUnits="userSpaceOnUse"
       gradientTransform="scale(0.64270588,1.5559217)"
       x1="248.43379"
       y1="151.35831"
       x2="455.03201"
       y2="151.35831"
       id="b">
      <stop
         stop-color="#1D2970"
         offset="0%"
         id="stop9" />
      <stop
         stop-color="#006DBA"
         offset="100%"
         id="stop11" />
    </linearGradient>
    <linearGradient
       gradientUnits="userSpaceOnUse"
       gradientTransform="scale(0.64155996,1.5587008)"
       x1="481.02563"
       y1="151.08855"
       x2="688.00177"
       y2="151.08855"
       id="c">
      <stop
         stop-color="#6E2B2F"
         offset="0%"
         id="stop14" />
      <stop
         stop-color="#E30138"
         offset="100%"
         id="stop16" />
    </linearGradient>
    <clipPath
       id="SVGID_2_">
      <path
         inkscape:connector-curvature="0"
         id="svg_5"
         d="m 13.599584,10.556876 c 0,0.529166 -0.423334,0.952499 -0.952501,0.952499 H 1.1377086 c -0.52916667,0 -0.95249947,-0.423333 -0.95249947,-0.952499 V 3.2014586 c 0,-0.5291667 0.4233328,-0.9525 0.95249947,-0.9525 H 12.647083 c 0.529167,0 0.952501,0.4233333 0.952501,0.9525 z"
         style="stroke-width:0.26458332" />
    </clipPath>
  </defs>
  <sodipodi:namedview
     id="base"
     pagecolor="#ffffff"
     bordercolor="#666666"
     borderopacity="1.0"
     inkscape:pageopacity="0.0"
     inkscape:pageshadow="2"
     inkscape:zoom="0.24748737"
     inkscape:cx="750.26087"
     inkscape:cy="791.02492"
     inkscape:document-units="mm"
     inkscape:current-layer="layer1"
     showgrid="false"
     units="mm"
     inkscape:window-width="1920"
     inkscape:window-height="1137"
     inkscape:window-x="1358"
     inkscape:window-y="-8"
     inkscape:window-maximized="1" />
  <metadata
     id="metadata41">
    <rdf:RDF>
      <cc:Work
         rdf:about="">
        <dc:format>image/svg+xml</dc:format>
        <dc:type
           rdf:resource="http://purl.org/dc/dcmitype/StillImage" />
        <dc:title />
      </cc:Work>
    </rdf:RDF>
  </metadata>
  <g
     inkscape:label="Layer 1"
     inkscape:groupmode="layer"
     id="layer1"
     transform="translate(0,-217.00001)">
    <g
       style="fill:none;fill-rule:evenodd"
       id="g10"
       transform="matrix(0.16985138,0,0,0.16985138,0,217)">
      <rect
         style="fill:#0e4595"
         y="0"
         x="0"
         width="750"
         height="471"
         rx="40"
         id="rect4" />
      <path
         style="fill:#ffffff"
         inkscape:connector-curvature="0"
         d="m 278.197,334.228 33.36,-195.763 h 53.36 l -33.383,195.763 z m 246.111,-191.54 c -10.572,-3.966 -27.137,-8.222 -47.823,-8.222 -52.725,0 -89.865,26.55 -90.18,64.603 -0.298,28.13 26.513,43.82 46.753,53.185 20.77,9.594 27.752,15.714 27.654,24.283 -0.132,13.12 -16.587,19.116 -31.923,19.116 -21.358,0 -32.704,-2.966 -50.228,-10.276 l -6.875,-3.11 -7.49,43.823 c 12.464,5.465 35.51,10.2 59.438,10.445 56.09,0 92.5,-26.248 92.916,-66.883 0.202,-22.268 -14.014,-39.216 -44.798,-53.188 -18.651,-9.055 -30.074,-15.1 -29.952,-24.268 0,-8.137 9.667,-16.84 30.556,-16.84 17.45,-0.27 30.09,3.536 39.937,7.5 l 4.78,2.26 7.235,-42.43 m 137.307,-4.221 h -41.23 c -12.774,0 -22.332,3.487 -27.942,16.234 l -79.245,179.403 h 56.03 c 0,0 9.163,-24.123 11.235,-29.418 6.123,0 60.553,0.084 68.336,0.084 1.595,6.852 6.49,29.333 6.49,29.333 h 49.513 L 661.614,138.463 Z m -65.418,126.407 c 4.413,-11.28 21.26,-54.723 21.26,-54.723 -0.316,0.52 4.38,-11.335 7.075,-18.685 l 3.606,16.88 c 0,0 10.217,46.727 12.352,56.527 h -44.293 z m -363.294,-126.407 -52.24,133.496 -5.567,-27.128 c -9.725,-31.274 -40.025,-65.156 -73.898,-82.12 l 47.766,171.204 56.456,-0.065 84.004,-195.385 h -56.52"
         id="path6" />
      <path
         style="fill:#f2ae14"
         inkscape:connector-curvature="0"
         d="M 131.92,138.465 H 45.88 l -0.683,4.073 c 66.94,16.204 111.232,55.363 129.618,102.414 l -18.708,-89.96 c -3.23,-12.395 -12.6,-16.094 -24.188,-16.526"
         id="path8" />
    </g>
    <g
       style="fill:none;fill-rule:evenodd"
       id="g18"
       transform="matrix(0.16985138,0,0,0.16985138,137.97187,217)">
      <rect
         style="fill:#000000"
         y="0"
         x="0"
         width="750"
         height="471"
         rx="40"
         id="rect4-1" />
      <path
         style="fill:#d9222a"
         inkscape:connector-curvature="0"
         d="m 434.008,235.5 c 0,99.142 -80.37,179.504 -179.508,179.504 C 155.362,415.004 75,334.642 75,235.5 75,136.367 155.362,55.996 254.5,55.996 c 99.137,0 179.508,80.37 179.508,179.504"
         id="path6-8" />
      <path
         style="fill:#ee9f2d"
         inkscape:connector-curvature="0"
         d="m 495.492,55.996 c -46.38,0 -88.642,17.596 -120.5,46.466 -6.488,5.884 -12.546,12.238 -18.125,18.996 h 36.266 c 4.96,6.03 9.525,12.37 13.684,19.013 h -63.634 c -3.812,6.105 -7.275,12.447 -10.34,19.01 h 84.31 c 2.88,6.157 5.422,12.495 7.6,19.003 h -99.51 c -2.076,6.192 -3.822,12.53 -5.218,19.01 h 109.942 c 2.637,12.25 4.04,24.965 4.04,38.007 0,19.933 -3.253,39.113 -9.253,57.02 h -99.512 c 2.175,6.513 4.716,12.855 7.595,19.01 h 84.317 c -3.075,6.562 -6.53,12.903 -10.346,19.012 h -63.625 c 4.154,6.63 8.73,12.98 13.684,18.996 h 36.258 c -5.57,6.77 -11.633,13.133 -18.13,19.012 31.86,28.867 74.118,46.454 120.497,46.454 C 594.63,415.004 675,334.642 675,235.5 675,136.37 594.63,55.996 495.492,55.996"
         id="path8-3" />
      <path
         style="fill:#000000"
         inkscape:connector-curvature="0"
         d="m 651.075,335.558 c 0,-3.2 2.592,-5.8 5.796,-5.8 3.205,0 5.797,2.6 5.797,5.8 0,3.2 -2.592,5.8 -5.796,5.8 -3.203,0 -5.795,-2.6 -5.795,-5.8 z m 5.796,4.41 c 2.434,0 4.41,-1.976 4.41,-4.41 0,-2.437 -1.976,-4.404 -4.41,-4.404 -2.437,0 -4.403,1.967 -4.403,4.404 0,2.434 1.966,4.41 4.404,4.41 z m -0.782,-1.86 H 654.9 v -5.095 h 2.15 c 0.45,0 0.908,0 1.304,0.254 0.413,0.28 0.646,0.77 0.646,1.28 0,0.57 -0.337,1.103 -0.883,1.31 l 0.937,2.25 h -1.316 l -0.78,-2.015 h -0.87 v 2.016 z m 0,-2.89 h 0.658 c 0.246,0 0.504,0.02 0.725,-0.1 0.197,-0.126 0.297,-0.36 0.297,-0.585 0,-0.195 -0.12,-0.42 -0.288,-0.516 -0.21,-0.13 -0.538,-0.1 -0.76,-0.1 h -0.632 v 1.3 z M 212.587,255.154 c -2.045,-0.237 -2.945,-0.3 -4.35,-0.3 -11.045,0 -16.637,3.788 -16.637,11.267 0,4.613 2.73,7.547 6.987,7.547 7.938,0 13.66,-7.56 14,-18.513 z m 14.17,32.996 h -16.145 l 0.37,-7.675 c -4.924,6.067 -11.495,8.95 -20.424,8.95 -10.562,0 -17.804,-8.25 -17.804,-20.23 0,-18.024 12.596,-28.54 34.217,-28.54 2.21,0 5.042,0.2 7.942,0.57 0.605,-2.442 0.763,-3.487 0.763,-4.8 0,-4.908 -3.396,-6.738 -12.5,-6.738 -9.533,-0.108 -17.396,2.27 -20.625,3.334 0.204,-1.228 2.7,-16.657 2.7,-16.657 9.712,-2.846 16.117,-3.917 23.325,-3.917 16.733,0 25.596,7.512 25.58,21.712 0.032,3.805 -0.597,8.5 -1.58,14.67 -1.692,10.73 -5.32,33.718 -5.817,39.322 z m -62.157,0 h -19.488 l 11.163,-69.996 -24.925,69.996 h -13.28 l -1.64,-69.596 -11.734,69.596 H 86.454 l 15.238,-91.054 h 28.02 l 1.7,50.967 17.092,-50.967 h 31.167 L 164.6,288.15 m 354.975,-32.996 c -2.037,-0.237 -2.942,-0.3 -4.342,-0.3 -11.04,0 -16.633,3.788 -16.633,11.267 0,4.613 2.725,7.547 6.983,7.547 7.938,0 13.663,-7.56 13.992,-18.513 z m 14.183,32.996 h -16.145 l 0.366,-7.675 c -4.926,6.067 -11.5,8.95 -20.422,8.95 -10.566,0 -17.8,-8.25 -17.8,-20.23 0,-18.024 12.588,-28.54 34.213,-28.54 2.21,0 5.038,0.2 7.934,0.57 0.604,-2.442 0.763,-3.487 0.763,-4.8 0,-4.908 -3.392,-6.738 -12.496,-6.738 -9.532,-0.108 -17.387,2.27 -20.628,3.334 0.204,-1.228 2.708,-16.657 2.708,-16.657 9.713,-2.846 16.113,-3.917 23.313,-3.917 16.74,0 25.604,7.512 25.587,21.712 0.033,3.805 -0.596,8.5 -1.58,14.67 -1.682,10.73 -5.32,33.718 -5.812,39.322 z m -220.391,-1.125 c -5.334,1.68 -9.492,2.4 -14,2.4 -9.963,0 -15.4,-5.725 -15.4,-16.267 -0.142,-3.27 1.433,-11.88 2.67,-19.737 1.125,-6.916 8.45,-50.528 8.45,-50.528 h 19.37 l -2.26,11.208 h 11.7 l -2.643,17.796 h -11.742 c -2.25,14.083 -5.454,31.625 -5.49,33.95 0,3.817 2.036,5.483 6.67,5.483 2.22,0 3.94,-0.226 5.254,-0.7 l -2.58,16.395 m 59.392,-0.6 c -6.654,2.033 -13.075,3.017 -19.88,3 -21.682,-0.02 -32.986,-11.346 -32.986,-33.033 0,-25.313 14.38,-43.946 33.9,-43.946 15.97,0 26.17,10.433 26.17,26.796 0,5.43 -0.7,10.73 -2.387,18.212 H 339 c -1.304,10.742 5.57,15.217 16.837,15.217 6.934,0 13.188,-1.428 20.142,-4.662 l -3.222,18.417 z m -10.887,-43.9 c 0.11,-1.542 2.055,-13.217 -9.012,-13.217 -6.17,0 -10.583,4.704 -12.38,13.217 h 21.393 z m -123.425,-5.017 c 0,9.367 4.54,15.825 14.84,20.675 7.893,3.71 9.114,4.81 9.114,8.17 0,4.618 -3.48,6.7 -11.192,6.7 -5.812,0 -11.22,-0.907 -17.458,-2.92 0,0 -2.563,16.32 -2.68,17.1 4.43,0.967 8.38,1.863 20.28,2.192 20.562,0 30.058,-7.83 30.058,-24.75 0,-10.175 -3.975,-16.146 -13.737,-20.633 -8.17,-3.75 -9.108,-4.588 -9.108,-8.046 0,-4.004 3.238,-6.046 9.538,-6.046 3.825,0 9.05,0.408 14,1.113 l 2.775,-17.175 c -5.046,-0.8 -12.696,-1.442 -17.15,-1.442 -21.8,0 -29.346,11.387 -29.28,25.062 m 229.087,-23.116 c 5.413,0 10.46,1.42 17.413,4.92 l 3.187,-19.762 c -2.854,-1.12 -12.904,-7.7 -21.416,-7.7 -13.042,0 -24.067,6.47 -31.82,17.15 -11.31,-3.746 -15.96,3.825 -21.66,11.367 l -5.062,1.18 c 0.383,-2.484 0.73,-4.95 0.613,-7.447 h -17.896 c -2.446,22.917 -6.78,46.13 -10.17,69.075 l -0.885,4.975 h 19.496 c 3.254,-21.142 5.038,-34.68 6.12,-43.842 l 7.343,-4.083 c 1.096,-4.08 4.53,-5.458 11.416,-5.292 -0.9,4.834 -1.383,9.917 -1.383,15.184 0,24.225 13.07,39.308 34.05,39.308 5.403,0 10.04,-0.712 17.22,-2.658 l 3.43,-20.76 c -6.46,3.18 -11.76,4.676 -16.56,4.676 -11.328,0 -18.183,-8.362 -18.183,-22.183 0,-20.05 10.196,-34.108 24.746,-34.108"
         id="path10" />
      <path
         style="fill:#ffffff"
         inkscape:connector-curvature="0"
         d="m 170.208,282.742 h -19.49 l 11.17,-69.988 -24.926,69.988 H 123.68 l -1.643,-69.588 -11.733,69.588 H 92.062 L 107.3,191.7 h 28.02 l 0.788,56.363 18.904,-56.363 h 30.267 l -15.072,91.042"
         id="path12" />
      <path
         style="fill:#000000"
         inkscape:connector-curvature="0"
         d="m 632.52,197.096 -4.32,26.308 c -5.33,-7.012 -11.054,-12.087 -18.612,-12.087 -9.834,0 -18.784,7.454 -24.642,18.425 -8.158,-1.692 -16.596,-4.563 -16.596,-4.563 l -0.004,0.066 c 0.658,-6.133 0.92,-9.875 0.862,-11.146 h -17.9 c -2.437,22.917 -6.77,46.13 -10.158,69.075 l -0.892,4.975 h 19.492 c 2.633,-17.096 4.65,-31.292 6.133,-42.55 6.66,-6.017 9.992,-11.267 16.72,-10.917 -2.978,7.205 -4.724,15.505 -4.724,24.017 0,18.513 9.366,30.725 23.533,30.725 7.14,0 12.62,-2.462 17.966,-8.17 l -0.913,6.883 H 636.9 l 14.842,-91.042 h -19.22 z m -24.37,73.942 c -6.633,0 -9.983,-4.91 -9.983,-14.596 0,-14.554 6.27,-24.875 15.112,-24.875 6.695,0 10.32,5.104 10.32,14.508 0,14.68 -6.37,24.963 -15.45,24.963 z"
         id="path14" />
      <path
         style="fill:#ffffff"
         inkscape:connector-curvature="0"
         d="m 218.192,249.758 c -2.042,-0.237 -2.946,-0.3 -4.346,-0.3 -11.046,0 -16.634,3.788 -16.634,11.267 0,4.604 2.73,7.546 6.98,7.546 7.945,0 13.666,-7.557 14,-18.512 z m 14.18,32.984 h -16.147 l 0.367,-7.663 c -4.92,6.053 -11.5,8.95 -20.42,8.95 -10.568,0 -17.805,-8.25 -17.805,-20.23 0,-18.033 12.59,-28.542 34.216,-28.542 2.21,0 5.042,0.2 7.938,0.57 0.605,-2.44 0.763,-3.486 0.763,-4.807 0,-4.907 -3.39,-6.728 -12.496,-6.728 -9.537,-0.11 -17.395,2.27 -20.63,3.32 0.205,-1.225 2.7,-16.637 2.7,-16.637 9.71,-2.858 16.122,-3.93 23.322,-3.93 16.737,0 25.603,7.518 25.587,21.705 0.03,3.82 -0.605,8.512 -1.584,14.675 -1.687,10.725 -5.32,33.725 -5.812,39.317 z m 261.374,-88.592 -3.192,19.767 c -6.95,-3.496 -12,-4.92 -17.408,-4.92 -14.55,0 -24.75,14.057 -24.75,34.107 0,13.82 6.858,22.18 18.183,22.18 4.8,0 10.095,-1.492 16.553,-4.676 l -3.42,20.75 c -7.184,1.96 -11.817,2.67 -17.226,2.67 -20.975,0 -34.05,-15.082 -34.05,-39.307 0,-32.55 18.06,-55.3 43.888,-55.3 8.508,0 18.563,3.61 21.42,4.73 m 31.444,55.607 c -2.042,-0.237 -2.942,-0.3 -4.346,-0.3 -11.042,0 -16.634,3.788 -16.634,11.267 0,4.604 2.73,7.546 6.984,7.546 7.937,0 13.662,-7.557 13.996,-18.512 z m 14.18,32.984 h -16.15 l 0.37,-7.663 c -4.925,6.053 -11.5,8.95 -20.42,8.95 -10.564,0 -17.805,-8.25 -17.805,-20.23 0,-18.033 12.595,-28.542 34.212,-28.542 2.213,0 5.042,0.2 7.942,0.57 0.6,-2.44 0.762,-3.486 0.762,-4.807 0,-4.907 -3.392,-6.728 -12.497,-6.728 -9.533,-0.11 -17.395,2.27 -20.63,3.32 0.205,-1.225 2.705,-16.637 2.705,-16.637 9.71,-2.858 16.117,-3.93 23.317,-3.93 16.742,0 25.604,7.518 25.583,21.705 0.034,3.82 -0.595,8.512 -1.58,14.675 -1.682,10.725 -5.324,33.725 -5.81,39.317 z M 318.975,281.62 c -5.338,1.68 -9.496,2.41 -14,2.41 -9.963,0 -15.4,-5.726 -15.4,-16.267 -0.138,-3.28 1.437,-11.88 2.675,-19.738 1.12,-6.925 8.446,-50.533 8.446,-50.533 h 19.366 l -2.258,11.212 h 9.942 l -2.646,17.788 h -9.975 c -2.25,14.09 -5.463,31.62 -5.496,33.95 0,3.83 2.04,5.483 6.67,5.483 2.22,0 3.937,-0.217 5.254,-0.692 l -2.58,16.388 m 59.394,-0.591 c -6.65,2.033 -13.08,3.012 -19.88,3 -21.683,-0.022 -32.987,-11.347 -32.987,-33.034 0,-25.32 14.38,-43.95 33.9,-43.95 15.97,0 26.17,10.43 26.17,26.8 0,5.433 -0.7,10.733 -2.382,18.212 h -38.575 c -1.305,10.742 5.57,15.22 16.837,15.22 6.93,0 13.188,-1.432 20.137,-4.674 l -3.22,18.425 z m -10.892,-43.913 c 0.117,-1.538 2.058,-13.217 -9.013,-13.217 -6.166,0 -10.58,4.717 -12.375,13.217 z m -123.421,-5.004 c 0,9.366 4.542,15.816 14.842,20.675 7.89,3.708 9.112,4.812 9.112,8.17 0,4.617 -3.483,6.7 -11.187,6.7 -5.816,0 -11.224,-0.908 -17.466,-2.92 0,0 -2.554,16.32 -2.67,17.1 4.42,0.966 8.374,1.85 20.274,2.19 20.567,0 30.06,-7.828 30.06,-24.745 0,-10.18 -3.972,-16.15 -13.74,-20.637 -8.166,-3.758 -9.11,-4.583 -9.11,-8.046 0,-4 3.244,-6.058 9.54,-6.058 3.82,0 9.046,0.42 14.004,1.125 l 2.77,-17.18 c -5.04,-0.8 -12.69,-1.44 -17.145,-1.44 -21.804,0 -29.345,11.378 -29.283,25.066 m 398.453,50.629 H 624.07 l 0.918,-6.892 c -5.346,5.717 -10.825,8.18 -17.967,8.18 -14.166,0 -23.528,-12.213 -23.528,-30.726 0,-24.63 14.52,-45.392 31.708,-45.392 7.558,0 13.28,3.088 18.604,10.096 L 638.13,191.7 h 19.22 z m -28.745,-17.11 c 9.075,0 15.45,-10.282 15.45,-24.953 0,-9.405 -3.63,-14.51 -10.325,-14.51 -8.838,0 -15.117,10.318 -15.117,24.876 0,9.687 3.36,14.587 9.993,14.587 z M 556.92,208.704 c -2.44,22.917 -6.774,46.13 -10.162,69.063 l -0.89,4.975 h 19.49 c 6.97,-45.275 8.66,-54.117 19.588,-53.01 1.742,-9.265 4.983,-17.382 7.4,-21.478 -8.163,-1.7 -12.72,2.913 -18.688,11.675 0.47,-3.788 1.334,-7.468 1.163,-11.226 h -17.9 M 396.5,208.704 c -2.446,22.917 -6.78,46.13 -10.167,69.063 l -0.887,4.975 h 19.5 c 6.962,-45.275 8.646,-54.117 19.57,-53.01 1.75,-9.265 4.992,-17.382 7.4,-21.478 -8.154,-1.7 -12.716,2.913 -18.678,11.675 0.47,-3.788 1.325,-7.468 1.162,-11.226 h -17.9 m 254.567,68.243 c 0,-3.213 2.596,-5.8 5.796,-5.8 3.204,0 5.795,2.587 5.795,5.8 0,3.196 -2.59,5.796 -5.795,5.796 -3.2,0 -5.796,-2.6 -5.796,-5.796 z m 5.796,4.404 c 2.437,0 4.404,-1.975 4.404,-4.404 0,-2.433 -1.967,-4.408 -4.404,-4.408 -2.434,0 -4.41,1.975 -4.41,4.408 0,2.43 1.976,4.404 4.41,4.404 z m -0.784,-1.87 h -1.188 v -5.084 h 2.154 c 0.446,0 0.908,0.008 1.296,0.254 0.416,0.283 0.654,0.767 0.654,1.275 0,0.575 -0.338,1.113 -0.888,1.317 l 0.942,2.237 h -1.32 l -0.78,-2.01 h -0.87 v 2.01 z m 0,-2.88 h 0.653 c 0.246,0 0.513,0.017 0.73,-0.1 0.195,-0.125 0.295,-0.362 0.295,-0.587 0,-0.188 -0.116,-0.413 -0.287,-0.525 -0.203,-0.117 -0.54,-0.084 -0.762,-0.084 h -0.63 v 1.296 z"
         id="path16" />
    </g>
    <g
       transform="matrix(0.16985138,0,0,0.16985138,275.77389,217)"
       style="fill:none;fill-rule:evenodd"
       id="g8">
      <rect
         style="fill:#2557d6"
         y="0"
         x="1"
         width="750"
         height="471"
         rx="40"
         id="rect4-8" />
      <path
         style="fill:#ffffff"
         inkscape:connector-curvature="0"
         d="m 1.003,221.185 h 36.024 l 8.123,-19.51 h 18.185 l 8.1,19.51 h 70.88 V 206.27 l 6.328,14.98 h 36.796 l 6.326,-15.203 v 15.138 h 176.15 l -0.08,-32.026 h 3.407 c 2.386,0.082 3.083,0.3 3.083,4.225 v 27.8 h 91.106 v -7.455 c 7.35,3.92 18.78,7.455 33.82,7.455 h 38.327 l 8.202,-19.51 h 18.185 l 8.02,19.51 h 73.86 v -18.532 l 11.187,18.532 h 59.187 V 98.678 h -58.575 v 14.468 l -8.202,-14.468 h -60.105 v 14.468 l -7.532,-14.468 h -81.188 c -13.59,0 -25.536,1.89 -35.186,7.153 V 98.68 h -56.026 v 7.153 c -6.14,-5.425 -14.508,-7.152 -23.812,-7.152 H 180.908 l -13.734,31.64 -14.104,-31.64 H 88.6 v 14.468 L 81.517,98.681 H 26.534 L 1,156.924 v 64.26 h 0.003 z m 227.396,-17.67 h -21.615 l -0.08,-68.794 -30.573,68.794 H 157.62 l -30.652,-68.854 v 68.854 H 84.084 l -8.1,-19.592 h -43.9 L 23.9,203.514 H 1 l 37.756,-87.837 h 31.326 l 35.86,83.164 v -83.163 h 34.41 l 27.594,59.587 25.347,-59.587 h 35.104 v 87.837 H 228.4 Z M 68.776,165.692 54.346,130.675 39.996,165.692 Z m 245.642,37.82 h -70.434 v -87.836 h 70.433 v 18.29 h -49.35 V 149.8 h 48.166 v 18.006 H 265.07 v 17.542 h 49.35 v 18.166 z m 99.255,-64.18 c 0,14.005 -9.386,21.24 -14.856,23.413 4.612,1.748 8.552,4.838 10.428,7.397 2.977,4.37 3.49,8.27 3.49,16.116 v 17.254 H 391.47 l -0.08,-11.077 c 0,-5.285 0.508,-12.886 -3.328,-17.112 -3.08,-3.09 -7.777,-3.76 -15.368,-3.76 h -22.633 v 31.95 H 328.98 v -87.838 h 48.496 c 10.775,0 18.714,0.283 25.53,4.207 6.67,3.924 10.67,9.652 10.67,19.45 z m -26.652,13.043 c -2.898,1.752 -6.324,1.81 -10.43,1.81 H 350.98 v -19.51 h 25.962 c 3.674,0 7.508,0.164 9.998,1.584 2.735,1.28 4.427,4.003 4.427,7.765 0,3.84 -1.61,6.93 -4.344,8.35 z m 60.466,51.138 h -21.514 v -87.837 h 21.513 v 87.837 z m 249.74,0 h -29.88 l -39.964,-65.927 v 65.927 h -42.94 l -8.204,-19.592 h -43.8 l -7.96,19.592 h -24.67 c -10.25,0 -23.225,-2.257 -30.573,-9.715 -7.41,-7.46 -11.266,-17.56 -11.266,-33.534 0,-13.027 2.304,-24.936 11.366,-34.347 6.816,-7.01 17.49,-10.243 32.02,-10.243 h 20.412 v 18.82 h -19.984 c -7.694,0 -12.04,1.14 -16.224,5.204 -3.594,3.7 -6.06,10.692 -6.06,19.898 0,9.41 1.878,16.196 5.797,20.628 3.246,3.476 9.145,4.53 14.695,4.53 h 9.47 l 29.715,-69.076 h 31.592 l 35.696,83.08 v -83.08 h 32.103 l 37.063,61.174 V 115.68 h 21.596 v 87.834 z m -128.16,-37.82 -14.59,-35.018 -14.51,35.017 h 29.1 z m 181.889,178.074 c -5.12,7.458 -15.1,11.24 -28.61,11.24 h -40.72 v -18.84 h 40.554 c 4.022,0 6.837,-0.528 8.532,-2.176 1.47,-1.358 2.493,-3.332 2.493,-5.73 0,-2.56 -1.024,-4.59 -2.575,-5.81 -1.53,-1.34 -3.757,-1.95 -7.43,-1.95 -19.796,-0.67 -44.494,0.61 -44.494,-27.193 0,-12.743 8.125,-26.157 30.25,-26.157 h 41.998 v -17.48 h -39.02 c -11.776,0 -20.33,2.808 -26.388,7.174 V 249.67 H 627.83 c -9.23,0 -20.063,2.278 -25.187,7.174 v -7.175 H 499.578 v 7.174 c -8.203,-5.892 -22.043,-7.175 -28.43,-7.175 h -67.984 v 7.174 c -6.49,-6.258 -20.92,-7.175 -29.716,-7.175 h -76.085 l -17.41,18.762 -16.307,-18.763 H 149.99 v 122.59 h 111.517 l 17.94,-19.058 16.9,19.06 68.74,0.06 V 343.48 h 6.756 c 9.12,0.14 19.878,-0.226 29.368,-4.31 v 33.085 h 56.698 v -31.953 h 2.735 c 3.49,0 3.834,0.143 3.834,3.616 v 28.333 H 636.71 c 10.936,0 22.366,-2.787 28.696,-7.845 v 7.846 h 54.632 c 11.37,0 22.47,-1.587 30.918,-5.65 v -22.84 z M 409.453,296.613 c 0,24.406 -18.286,29.445 -36.716,29.445 H 346.43 v 29.47 h -40.98 l -25.963,-29.086 -26.98,29.085 H 168.99 v -87.86 h 84.8 l 25.94,28.8 26.82,-28.8 h 67.37 c 16.733,0 35.533,4.614 35.533,28.946 z m -167.625,40.434 h -51.84 v -17.48 h 46.29 V 301.64 h -46.29 v -15.973 h 52.86 l 23.063,25.604 -24.082,25.777 z m 83.526,10.06 -32.37,-35.788 32.37,-34.652 z m 47.873,-39.066 H 345.98 v -22.373 h 27.492 c 7.612,0 12.896,3.09 12.896,10.773 0,7.598 -5.04,11.6 -13.14,11.6 z M 515.97,267.67 h 70.37 v 18.17 h -49.372 v 15.973 h 48.167 v 17.926 h -48.167 v 17.48 l 49.372,0.08 v 18.23 h -70.37 z m -27.053,47.03 c 4.693,1.724 8.53,4.816 10.33,7.375 2.976,4.29 3.407,8.293 3.492,16.037 v 17.417 h -21.17 v -10.992 c 0,-5.286 0.512,-13.112 -3.407,-17.198 -3.08,-3.147 -7.777,-3.9 -15.468,-3.9 h -22.533 v 32.09 h -21.186 v -87.86 h 48.678 c 10.674,0 18.448,0.47 25.37,4.147 6.653,4.004 10.838,9.488 10.838,19.51 -0.003,14.024 -9.395,21.18 -14.945,23.373 z M 477,303.59 c -2.82,1.667 -6.31,1.81 -10.412,1.81 h -25.613 v -19.733 h 25.962 c 3.754,0 7.51,0.08 10.062,1.587 2.73,1.423 4.365,4.144 4.365,7.903 0,3.76 -1.634,6.788 -4.366,8.433 z m 190.335,5.597 c 4.106,4.23 6.306,9.572 6.306,18.614 0,18.902 -11.857,27.724 -33.12,27.724 h -41.066 v -18.84 h 40.9 c 4,0 6.836,-0.527 8.613,-2.175 1.45,-1.36 2.49,-3.334 2.49,-5.73 0,-2.56 -1.125,-4.593 -2.573,-5.81 -1.612,-1.342 -3.836,-1.95 -7.508,-1.95 -19.717,-0.672 -44.41,0.608 -44.41,-27.194 0,-12.744 8.04,-26.158 30.144,-26.158 h 42.27 v 18.7 H 630.7 c -3.834,0 -6.327,0.143 -8.447,1.587 -2.31,1.422 -3.166,3.534 -3.166,6.32 0,3.315 1.96,5.57 4.612,6.545 2.224,0.77 4.613,0.996 8.205,0.996 l 11.35,0.305 c 11.446,0.28 19.303,2.25 24.078,7.067 z M 751,285.667 h -38.427 c -3.836,0 -6.385,0.143 -8.532,1.587 -2.223,1.423 -3.08,3.534 -3.08,6.322 0,3.314 1.878,5.57 4.61,6.544 2.225,0.77 4.614,0.996 8.126,0.996 l 11.427,0.304 c 11.53,0.284 19.228,2.258 23.92,7.072 0.856,0.67 1.37,1.422 1.957,2.175 v -25 z"
         id="path6-2" />
    </g>
    <g
       style="fill:none;fill-rule:evenodd"
       id="g31"
       transform="matrix(0.16985138,0,0,0.16985138,413.91562,217)">
      <rect
         style="fill:#0e4c96"
         y="0"
         x="0"
         width="750"
         height="471"
         rx="40"
         id="rect21" />
      <path
         style="fill:#ffffff"
         inkscape:connector-curvature="0"
         d="m 617.243,346.766 c 0,41.615 -33.728,75.36 -75.36,75.36 H 132.757 v -297.88 c 0,-41.627 33.733,-75.372 75.365,-75.372 h 409.12 v 297.892 z"
         id="path23" />
      <path
         style="fill:url(#a)"
         inkscape:connector-curvature="0"
         d="m 483.86,242.045 c 11.683,0.253 23.436,-0.516 35.076,0.4 11.787,2.2 14.628,20.043 4.156,25.888 -7.14,3.85 -15.633,1.432 -23.38,2.113 H 483.86 v -28.4 z M 525.69,209.9 c 2.596,9.165 -6.238,17.392 -15.066,16.13 H 483.86 c 0.184,-8.642 -0.37,-18.02 0.27,-26.208 10.725,0.3 21.55,-0.616 32.21,0.48 4.582,1.15 8.414,4.916 9.352,9.598 z M 590.12,73.997 c 0.498,17.5 0.07,35.927 0.214,53.783 -0.035,72.596 0.072,145.194 -0.055,217.79 -0.47,27.207 -24.583,50.844 -51.6,51.387 -27.047,0.11 -54.096,0.016 -81.143,0.047 v -109.75 c 29.47,-0.154 58.96,0.307 88.417,-0.232 13.667,-0.86 28.632,-9.876 29.27,-24.915 1.61,-15.102 -12.632,-25.55 -26.153,-27.2 -5.197,-0.136 -5.043,-1.516 0,-2.118 12.893,-2.788 23.02,-16.134 19.227,-29.5 -3.236,-14.058 -18.773,-19.5 -31.697,-19.472 -26.35,-0.18 -52.71,-0.026 -79.063,-0.077 0.172,-20.488 -0.354,-41 0.286,-61.473 2.087,-26.716 26.806,-48.747 53.447,-48.27 z"
         id="path25" />
      <path
         style="fill:url(#b)"
         inkscape:connector-curvature="0"
         d="m 159.74,125.04 c 0.674,-27.163 24.89,-50.61 51.875,-51.007 26.944,-0.083 53.89,-0.012 80.837,-0.036 -0.074,90.885 0.148,181.777 -0.112,272.658 -1.038,26.834 -24.99,49.834 -51.68,50.307 -26.995,0.1 -53.994,0.014 -80.99,0.042 V 283.55 c 26.222,6.195 53.72,8.833 80.472,4.722 15.993,-2.575 33.488,-10.424 38.902,-27.014 3.986,-14.192 1.742,-29.126 2.334,-43.692 V 183.742 H 235.08 c -0.207,22.37 0.427,44.78 -0.334,67.125 -1.248,13.734 -14.846,22.46 -27.8,21.995 -16.066,0.17 -47.898,-11.64 -47.898,-11.64 -0.08,-41.917 0.466,-94.408 0.692,-136.182 z"
         id="path27" />
      <path
         style="fill:url(#c)"
         inkscape:connector-curvature="0"
         d="m 309.72,197.39 c -2.434,0.517 -0.49,-8.3 -1.114,-11.646 0.166,-21.15 -0.346,-42.323 0.284,-63.458 2.083,-26.83 26.99,-48.916 53.74,-48.288 h 78.765 c -0.074,90.884 0.147,181.775 -0.112,272.656 -1.04,26.834 -24.992,49.833 -51.68,50.308 -26.998,0.1 -53.998,0.015 -80.997,0.043 V 272.708 c 18.44,15.128 43.5,17.484 66.472,17.525 17.317,-0.006 34.534,-2.675 51.35,-6.67 V 260.79 c -18.953,9.447 -41.233,15.446 -62.243,10.018 -14.656,-3.65 -25.294,-17.81 -25.056,-32.936 -1.7,-15.728 7.523,-32.335 22.98,-37.01 19.19,-6.01 40.108,-1.414 58.096,6.397 3.855,2.017 7.765,4.52 6.222,-1.922 v -17.9 c -30.084,-7.157 -62.1,-9.792 -92.33,-2.004 -8.747,2.468 -17.27,6.21 -24.378,11.956 z"
         id="path29" />
    </g>
    <g
       id="g5004"
       transform="translate(-137.55361,-1.5258789e-5)">
      <rect
         style="fill:#0e4595;fill-rule:evenodd;stroke-width:0.16985138"
         y="217.00002"
         x="689.4411"
         width="127.38853"
         height="80"
         rx="6.794055"
         id="rect4-0" />
      <path
         sodipodi:nodetypes="cccccc"
         inkscape:connector-curvature="0"
         id="rect2"
         d="m 698.07337,223.84089 v 47.88091 c 0,2.97112 2.49458,5.4012 5.54322,5.4012 h 104.38805 c 0,0 0.07,-40.2793 0.0354,-53.28211 z"
         style="fill:#ffffff;stroke-width:0.43741813" />
      <polygon
         transform="matrix(0.44829959,0,0,0.44829959,694.47952,222.69596)"
         style="fill:#0e4595;fill-opacity:1"
         points="116.145,95.719 97.858,95.719 109.296,24.995 127.582,24.995 "
         id="polygon6" />
      <path
         style="fill:#0e4595;fill-opacity:1;stroke-width:0.44829959"
         inkscape:connector-curvature="0"
         d="m 776.26595,234.67632 c -1.61746,-0.64107 -4.18174,-1.34938 -7.35346,-1.34938 -8.09539,0 -13.79686,4.31712 -13.83138,10.48931 -0.0672,4.55383 4.08176,7.08313 7.18489,8.60152 3.17172,1.55157 4.24988,2.56383 4.24988,3.94683 -0.0323,2.1245 -2.56292,3.10313 -4.92322,3.10313 -3.27304,0 -5.02678,-0.50478 -7.69193,-1.6865 l -1.0795,-0.50613 -1.1472,7.1172 c 1.92276,0.87598 5.46522,1.65289 9.14307,1.68696 8.60197,0 14.20213,-4.25033 14.26848,-10.82778 0.0327,-3.60926 -2.15811,-6.37482 -6.8814,-8.6347 -2.86732,-1.4507 -4.62331,-2.42889 -4.62331,-3.91321 0.0341,-1.34938 1.48521,-2.73149 4.72238,-2.73149 2.66515,-0.0677 4.62287,0.57293 6.10674,1.214 l 0.74149,0.33667 z"
         id="path8-8" />
      <path
         style="fill:#0e4595;fill-opacity:1;stroke-width:0.44829959"
         inkscape:connector-curvature="0"
         d="m 787.16187,254.3746 c 0.67514,-1.82144 3.27304,-8.87095 3.27304,-8.87095 -0.0341,0.0677 0.67379,-1.85506 1.07861,-3.03544 l 0.57292,2.73194 c 0,0 1.55247,7.58926 1.88959,9.17445 -1.28124,0 -5.1949,0 -6.81416,0 z m 10.11947,-20.47339 h -6.3412 c -1.95548,0 -3.44114,0.57293 -4.28484,2.63062 l -12.17717,29.07492 h 8.60198 c 0,0 1.41662,-3.91321 1.72057,-4.75646 0.94412,0 9.31163,0 10.52563,0 0.23535,1.11358 0.97819,4.75646 0.97819,4.75646 h 7.5906 z"
         id="path10-4" />
      <path
         style="fill:#0e4595;fill-opacity:1;stroke-width:0.44829959"
         inkscape:connector-curvature="0"
         d="m 731.50189,233.90121 -8.02859,21.62014 -0.87733,-4.38482 c -1.48432,-5.0595 -6.13946,-10.55655 -11.33435,-13.28939 l 7.3539,27.72599 h 8.66922 l 12.88592,-31.67192 z"
         id="path12-9" />
      <path
         style="fill:#faa61a;stroke-width:0.44829959"
         inkscape:connector-curvature="0"
         d="M 716.01807,233.90121 H 702.8282 l -0.13493,0.64062 c 10.28892,2.63107 17.10307,8.97271 19.9027,16.5956 l -2.86732,-14.57108 c -0.47206,-2.02497 -1.92276,-2.59835 -3.71058,-2.66514 z"
         id="path14-2" />
      <g
         style="fill:#ffffff;fill-opacity:1"
         transform="matrix(0.44829959,0,0,0.44829959,694.47952,222.69596)"
         id="g34">
        <polygon
           style="fill:#ffffff;fill-opacity:1"
           points="186.06,134.181 186.459,131.173 170.804,131.237 170.399,134.227 176.375,134.227 173.847,152.483 176.878,152.483 176.881,152.465 177.099,152.418 179.419,134.228 "
           id="polygon16" />
        <polygon
           style="fill:#ffffff;fill-opacity:1"
           points="138.254,131.236 135.353,152.483 138.388,152.483 138.388,152.465 146.39,152.418 146.792,149.413 138.798,149.46 139.679,143.022 145.765,142.971 146.167,139.966 140.089,140.017 140.878,134.227 148.62,134.18 149.022,131.172 "
           id="polygon18" />
        <polygon
           style="fill:#ffffff;fill-opacity:1"
           points="109.018,131.236 106.118,152.483 109.149,152.483 109.152,152.465 117.154,152.418 117.556,149.413 109.563,149.46 110.442,143.022 116.529,142.971 116.931,139.966 110.851,140.017 111.642,134.227 119.384,134.18 119.783,131.172 "
           id="polygon20" />
        <polygon
           style="fill:#ffffff;fill-opacity:1"
           points="123.927,152.483 123.93,152.465 131.929,152.418 132.33,149.413 124.337,149.46 127.146,131.173 123.794,131.237 120.894,152.483 "
           id="polygon22" />
        <path
           style="fill:#ffffff;fill-opacity:1"
           inkscape:connector-curvature="0"
           d="m 150.823,141.711 c -0.748,6.213 2.935,11.251 8.229,11.251 1.961,0 3.864,-0.688 5.528,-1.875 v -3.583 c -1.429,1.449 -3.254,2.346 -5.151,2.346 -3.83,0 -6.494,-3.646 -5.955,-8.139 0.543,-4.495 4.088,-8.14 7.914,-8.14 1.852,0 3.43,0.85 4.504,2.239 l 1.627,-2.817 c -1.459,-1.585 -3.455,-2.535 -5.756,-2.535 -5.289,0 -10.19,5.038 -10.94,11.253 z"
           id="path24" />
        <polygon
           style="fill:#ffffff;fill-opacity:1"
           points="229.405,152.419 229.625,152.419 231.955,135.995 239.925,152.419 242.457,152.419 245.405,131.238 242.545,131.238 240.13,146.523 232.75,131.238 229.798,131.238 226.371,152.483 "
           id="polygon26" />
        <g
           style="fill:#ffffff;fill-opacity:1"
           id="g30">
          <path
             style="fill:#ffffff;fill-opacity:1"
             inkscape:connector-curvature="0"
             d="m 215.64,130.458 c -5.092,0 -9.805,5.038 -10.525,11.253 -0.721,6.213 2.824,11.251 7.916,11.251 5.091,0 9.804,-5.038 10.525,-11.251 0.718,-6.215 -2.827,-11.253 -7.916,-11.253 z m 5.364,11.253 c -0.521,4.493 -3.978,8.716 -7.659,8.716 -3.681,0 -6.199,-4.223 -5.678,-8.716 0.52,-4.496 3.928,-8.715 7.611,-8.715 3.683,0 6.248,4.22 5.726,8.715 z"
             id="path28" />
        </g>
        <path
           style="fill:#ffffff;fill-opacity:1"
           inkscape:connector-curvature="0"
           d="m 196.397,131.174 -6.451,0.064 -3.163,21.245 3.03,-0.064 h 0.004 0.22 l 1.112,-8.987 1.634,-0.004 4.894,8.991 h 3.276 l -4.798,-8.984 c 6.024,-1.482 7.768,-12.331 0.242,-12.261 z m -1.337,9.642 h -3.488 l 0.9,-7.046 3.728,0.05 c 3.36,0.041 1.649,6.996 -1.14,6.996 z"
           id="path32" />
      </g>
    </g>
  </g>
</svg>
