<svg id="Layer_1" data-name="Layer 1" xmlns="http://www.w3.org/2000/svg" viewBox="0 0 307.98 154.95"><defs><style>.cls-1{fill:#fff;}.cls-2{fill:none;}</style></defs><title>menu</title><path class="cls-1" d="M35.62,122.1H324.35a9.62,9.62,0,1,0,0-19.25H35.62a9.62,9.62,0,1,0,0,19.25Zm0,0" transform="translate(-26 -102.85)"/><path class="cls-1" d="M324.35,170.22H35.62a9.62,9.62,0,1,0,0,19.25H324.35a9.62,9.62,0,1,0,0-19.25Zm0,0" transform="translate(-26 -102.85)"/><path class="cls-1" d="M324.35,237.59H131.87a9.62,9.62,0,1,0,0,19.25H324.35a9.62,9.62,0,1,0,0-19.25Zm0,0" transform="translate(-26 -102.85)"/><rect class="cls-2" y="0.15" width="307.92" height="154.8"/></svg>