<svg xmlns="http://www.w3.org/2000/svg" xmlns:xlink="http://www.w3.org/1999/xlink" viewBox="0 0 1122.97 461.58"><defs><style>.cls-1,.cls-25{fill:none;}.cls-2{isolation:isolate;}.cls-3{clip-path:url(#clip-path);}.cls-4{fill:url(#Degradado_sin_nombre_5);}.cls-5{mix-blend-mode:screen;}.cls-10,.cls-11,.cls-12,.cls-13,.cls-14,.cls-15,.cls-16,.cls-17,.cls-18,.cls-19,.cls-20,.cls-21,.cls-22,.cls-23,.cls-24,.cls-29,.cls-30,.cls-31,.cls-32,.cls-33,.cls-34,.cls-35,.cls-36,.cls-37,.cls-38,.cls-39,.cls-40,.cls-41,.cls-42,.cls-43,.cls-44,.cls-45,.cls-46,.cls-47,.cls-6,.cls-7,.cls-8,.cls-9{opacity:0.25;}.cls-6{fill:url(#Degradado_sin_nombre_2);}.cls-7{fill:url(#Degradado_sin_nombre_2-2);}.cls-8{fill:url(#Degradado_sin_nombre_2-3);}.cls-9{fill:url(#Degradado_sin_nombre_2-4);}.cls-10{fill:url(#Degradado_sin_nombre_2-5);}.cls-11{fill:url(#Degradado_sin_nombre_2-6);}.cls-12{fill:url(#Degradado_sin_nombre_2-7);}.cls-13{fill:url(#Degradado_sin_nombre_2-8);}.cls-14{fill:url(#Degradado_sin_nombre_2-9);}.cls-15{fill:url(#Degradado_sin_nombre_2-10);}.cls-16{fill:url(#Degradado_sin_nombre_2-11);}.cls-17{fill:url(#Degradado_sin_nombre_2-12);}.cls-18{fill:url(#Degradado_sin_nombre_2-13);}.cls-19{fill:url(#Degradado_sin_nombre_2-14);}.cls-20{fill:url(#Degradado_sin_nombre_2-15);}.cls-21{fill:url(#Degradado_sin_nombre_2-16);}.cls-22{fill:url(#Degradado_sin_nombre_2-17);}.cls-23{fill:url(#Degradado_sin_nombre_2-18);}.cls-24{fill:url(#Degradado_sin_nombre_2-19);}.cls-25{stroke:#6bffff;stroke-miterlimit:10;stroke-width:0.6px;}.cls-26{opacity:0.11;}.cls-27{clip-path:url(#clip-path-2);}.cls-28{fill:url(#Degradado_sin_nombre_5-2);}.cls-29{fill:url(#Degradado_sin_nombre_2-20);}.cls-30{fill:url(#Degradado_sin_nombre_2-21);}.cls-31{fill:url(#Degradado_sin_nombre_2-22);}.cls-32{fill:url(#Degradado_sin_nombre_2-23);}.cls-33{fill:url(#Degradado_sin_nombre_2-24);}.cls-34{fill:url(#Degradado_sin_nombre_2-25);}.cls-35{fill:url(#Degradado_sin_nombre_2-26);}.cls-36{fill:url(#Degradado_sin_nombre_2-27);}.cls-37{fill:url(#Degradado_sin_nombre_2-28);}.cls-38{fill:url(#Degradado_sin_nombre_2-29);}.cls-39{fill:url(#Degradado_sin_nombre_2-30);}.cls-40{fill:url(#Degradado_sin_nombre_2-31);}.cls-41{fill:url(#Degradado_sin_nombre_2-32);}.cls-42{fill:url(#Degradado_sin_nombre_2-33);}.cls-43{fill:url(#Degradado_sin_nombre_2-34);}.cls-44{fill:url(#Degradado_sin_nombre_2-35);}.cls-45{fill:url(#Degradado_sin_nombre_2-36);}.cls-46{fill:url(#Degradado_sin_nombre_2-37);}.cls-47{fill:url(#Degradado_sin_nombre_2-38);}</style><clipPath id="clip-path"><rect class="cls-1" x="15.8" y="-142.01" width="1083.2" height="398.84"/></clipPath><radialGradient id="Degradado_sin_nombre_5" cx="556.87" cy="177.21" r="339.98" gradientTransform="translate(0 93.69) scale(1 0.47)" gradientUnits="userSpaceOnUse"><stop offset="0" stop-color="#005abe"/><stop offset="1" stop-color="#11162b"/></radialGradient><radialGradient id="Degradado_sin_nombre_2" cx="607.91" cy="154.59" r="47.45" gradientUnits="userSpaceOnUse"><stop offset="0" stop-color="#1d8fcb"/><stop offset="0.23" stop-color="#1d8fcb" stop-opacity="0.71"/><stop offset="0.5" stop-color="#1d8fcb" stop-opacity="0.41"/><stop offset="0.72" stop-color="#1d8fcb" stop-opacity="0.19"/><stop offset="0.9" stop-color="#1d8fcb" stop-opacity="0.05"/><stop offset="1" stop-color="#1d8fcb" stop-opacity="0"/></radialGradient><radialGradient id="Degradado_sin_nombre_2-2" cx="650.5" cy="147.32" r="47.45" xlink:href="#Degradado_sin_nombre_2"/><radialGradient id="Degradado_sin_nombre_2-3" cx="598" cy="239.85" r="47.45" gradientTransform="translate(9.5 -88.34) scale(1.05 1.02)" xlink:href="#Degradado_sin_nombre_2"/><radialGradient id="Degradado_sin_nombre_2-4" cx="449.11" cy="233.22" r="85.95" gradientTransform="translate(9.5 -88.34) scale(1.05 1.02)" xlink:href="#Degradado_sin_nombre_2"/><radialGradient id="Degradado_sin_nombre_2-5" cx="798.3" cy="207.77" r="85.95" gradientTransform="translate(9.5 -88.34) scale(1.05 1.02)" xlink:href="#Degradado_sin_nombre_2"/><radialGradient id="Degradado_sin_nombre_2-6" cx="848.02" cy="224.47" r="85.95" gradientTransform="translate(9.5 -88.34) scale(1.05 1.02)" xlink:href="#Degradado_sin_nombre_2"/><radialGradient id="Degradado_sin_nombre_2-7" cx="334.52" cy="223.68" r="85.95" gradientTransform="translate(9.5 -88.34) scale(1.05 1.02)" xlink:href="#Degradado_sin_nombre_2"/><radialGradient id="Degradado_sin_nombre_2-8" cx="346.57" cy="241.57" r="85.95" gradientTransform="translate(9.5 -88.34) scale(1.05 1.02)" xlink:href="#Degradado_sin_nombre_2"/><radialGradient id="Degradado_sin_nombre_2-9" cx="239.36" cy="200.61" r="85.95" gradientTransform="translate(9.5 -88.34) scale(1.05 1.02)" xlink:href="#Degradado_sin_nombre_2"/><radialGradient id="Degradado_sin_nombre_2-10" cx="538.3" cy="157.71" r="47.45" xlink:href="#Degradado_sin_nombre_2"/><radialGradient id="Degradado_sin_nombre_2-11" cx="843.74" cy="135.77" r="47.45" xlink:href="#Degradado_sin_nombre_2"/><radialGradient id="Degradado_sin_nombre_2-12" cx="817.3" cy="96.92" r="47.45" xlink:href="#Degradado_sin_nombre_2"/><radialGradient id="Degradado_sin_nombre_2-13" cx="883.68" cy="133.08" r="47.45" xlink:href="#Degradado_sin_nombre_2"/><radialGradient id="Degradado_sin_nombre_2-14" cx="608.45" cy="169.77" r="47.45" xlink:href="#Degradado_sin_nombre_2"/><radialGradient id="Degradado_sin_nombre_2-15" cx="592.02" cy="176.68" r="27.12" xlink:href="#Degradado_sin_nombre_2"/><radialGradient id="Degradado_sin_nombre_2-16" cx="557.58" cy="175.86" r="27.12" xlink:href="#Degradado_sin_nombre_2"/><radialGradient id="Degradado_sin_nombre_2-17" cx="574.38" cy="171.86" r="27.12" xlink:href="#Degradado_sin_nombre_2"/><radialGradient id="Degradado_sin_nombre_2-18" cx="682.03" cy="141.3" r="27.12" xlink:href="#Degradado_sin_nombre_2"/><radialGradient id="Degradado_sin_nombre_2-19" cx="531.13" cy="175.58" r="27.12" xlink:href="#Degradado_sin_nombre_2"/><clipPath id="clip-path-2"><rect class="cls-1" x="15.8" y="256.01" width="1083.2" height="398.84"/></clipPath><radialGradient id="Degradado_sin_nombre_5-2" cx="556.87" cy="599.23" r="339.98" gradientTransform="matrix(1, 0, 0, -0.47, 0, 618.06)" xlink:href="#Degradado_sin_nombre_5"/><radialGradient id="Degradado_sin_nombre_2-20" cx="607.91" cy="576.61" r="47.45" gradientTransform="matrix(1, 0, 0, -1, 0, 934.87)" xlink:href="#Degradado_sin_nombre_2"/><radialGradient id="Degradado_sin_nombre_2-21" cx="650.5" cy="569.34" r="47.45" gradientTransform="matrix(1, 0, 0, -1, 0, 934.87)" xlink:href="#Degradado_sin_nombre_2"/><radialGradient id="Degradado_sin_nombre_2-22" cx="598" cy="653.03" r="47.45" gradientTransform="matrix(1.05, 0, 0, -1.02, 9.5, 1023.21)" xlink:href="#Degradado_sin_nombre_2"/><radialGradient id="Degradado_sin_nombre_2-23" cx="449.11" cy="646.4" r="85.95" gradientTransform="matrix(1.05, 0, 0, -1.02, 9.5, 1023.21)" xlink:href="#Degradado_sin_nombre_2"/><radialGradient id="Degradado_sin_nombre_2-24" cx="798.3" cy="620.95" r="85.95" gradientTransform="matrix(1.05, 0, 0, -1.02, 9.5, 1023.21)" xlink:href="#Degradado_sin_nombre_2"/><radialGradient id="Degradado_sin_nombre_2-25" cx="848.02" cy="637.65" r="85.95" gradientTransform="matrix(1.05, 0, 0, -1.02, 9.5, 1023.21)" xlink:href="#Degradado_sin_nombre_2"/><radialGradient id="Degradado_sin_nombre_2-26" cx="334.52" cy="636.85" r="85.95" gradientTransform="matrix(1.05, 0, 0, -1.02, 9.5, 1023.21)" xlink:href="#Degradado_sin_nombre_2"/><radialGradient id="Degradado_sin_nombre_2-27" cx="346.57" cy="654.75" r="85.95" gradientTransform="matrix(1.05, 0, 0, -1.02, 9.5, 1023.21)" xlink:href="#Degradado_sin_nombre_2"/><radialGradient id="Degradado_sin_nombre_2-28" cx="239.36" cy="613.79" r="85.95" gradientTransform="matrix(1.05, 0, 0, -1.02, 9.5, 1023.21)" xlink:href="#Degradado_sin_nombre_2"/><radialGradient id="Degradado_sin_nombre_2-29" cx="538.3" cy="579.73" r="47.45" gradientTransform="matrix(1, 0, 0, -1, 0, 934.87)" xlink:href="#Degradado_sin_nombre_2"/><radialGradient id="Degradado_sin_nombre_2-30" cx="843.74" cy="557.79" r="47.45" gradientTransform="matrix(1, 0, 0, -1, 0, 934.87)" xlink:href="#Degradado_sin_nombre_2"/><radialGradient id="Degradado_sin_nombre_2-31" cx="817.3" cy="518.94" r="47.45" gradientTransform="matrix(1, 0, 0, -1, 0, 934.87)" xlink:href="#Degradado_sin_nombre_2"/><radialGradient id="Degradado_sin_nombre_2-32" cx="883.68" cy="555.1" r="47.45" gradientTransform="matrix(1, 0, 0, -1, 0, 934.87)" xlink:href="#Degradado_sin_nombre_2"/><radialGradient id="Degradado_sin_nombre_2-33" cx="608.45" cy="591.79" r="47.45" gradientTransform="matrix(1, 0, 0, -1, 0, 934.87)" xlink:href="#Degradado_sin_nombre_2"/><radialGradient id="Degradado_sin_nombre_2-34" cx="592.02" cy="598.7" r="27.12" gradientTransform="matrix(1, 0, 0, -1, 0, 934.87)" xlink:href="#Degradado_sin_nombre_2"/><radialGradient id="Degradado_sin_nombre_2-35" cx="557.58" cy="597.88" r="27.12" gradientTransform="matrix(1, 0, 0, -1, 0, 934.87)" xlink:href="#Degradado_sin_nombre_2"/><radialGradient id="Degradado_sin_nombre_2-36" cx="574.38" cy="593.89" r="27.12" gradientTransform="matrix(1, 0, 0, -1, 0, 934.87)" xlink:href="#Degradado_sin_nombre_2"/><radialGradient id="Degradado_sin_nombre_2-37" cx="682.03" cy="563.32" r="27.12" gradientTransform="matrix(1, 0, 0, -1, 0, 934.87)" xlink:href="#Degradado_sin_nombre_2"/><radialGradient id="Degradado_sin_nombre_2-38" cx="531.13" cy="597.6" r="27.12" gradientTransform="matrix(1, 0, 0, -1, 0, 934.87)" xlink:href="#Degradado_sin_nombre_2"/></defs><title>Vector Smart Object6</title><g class="cls-2"><g id="BACKGROUND_2" data-name="BACKGROUND 2"><g class="cls-3"><path class="cls-4" d="M176.66,118.4C188.1,99,199.43,81.35,224.85,80.85c14.74-.29,27.51,6.77,36.93,17.31,13,14.59,17.78,49.1,37.82,56.89,16,6.22,22.1-8.3,36.27-9.49,16.7-1.4,23.53,18.81,40.53,8.84,27.78-16.29,42-75.53,79.83-38.91C473.33,132,490.34,166,514,173.16c12.78,3.89,29.48,1.3,42.88,1.3,12.71,0,26,1.12,38.68,0,26-2.31,33.12-30.73,56.69-35.64,11.46-2.39,24.23,5.53,35.7,5.68,23.13.3,36-25.52,47.12-42.25,7.45-11.17,24-46.21,42.41-40.89,25.27,7.32,28.58,53.11,50.27,66.45,7.2,4.43,15,5.75,22.63,9.86s16,16.55,25.64,17.17c30.74,2,35.28-47,60.87-54.09,3.65,22.53-2.36,63.47,14.48,81.31,10.32,10.93,35.09,17.38,48.36,23.6q168.44,79.05,337.22,157.4H-223.2Q-56.13,284.83,111,206.62c14.28-6.72,39.22-13.18,50.23-24.88C175.64,166.4,172.09,137.64,176.66,118.4Z"/><g class="cls-5"><circle class="cls-6" cx="607.91" cy="154.59" r="47.45"/><circle class="cls-7" cx="650.5" cy="147.32" r="47.45"/><ellipse class="cls-8" cx="634.83" cy="156.64" rx="49.62" ry="48.47"/><ellipse class="cls-9" cx="479.13" cy="149.87" rx="89.89" ry="87.79"/><ellipse class="cls-10" cx="844.28" cy="123.88" rx="89.89" ry="87.79"/><ellipse class="cls-11" cx="896.27" cy="140.93" rx="89.89" ry="87.79"/><ellipse class="cls-12" cx="359.31" cy="140.12" rx="89.89" ry="87.79"/><ellipse class="cls-13" cx="371.9" cy="158.4" rx="89.89" ry="87.79"/><ellipse class="cls-14" cx="259.79" cy="116.56" rx="89.89" ry="87.79"/><circle class="cls-15" cx="538.3" cy="157.71" r="47.45"/><circle class="cls-16" cx="843.74" cy="135.77" r="47.45"/><circle class="cls-17" cx="817.3" cy="96.92" r="47.45"/><circle class="cls-18" cx="883.68" cy="133.08" r="47.45"/><circle class="cls-19" cx="608.45" cy="169.77" r="47.45"/><circle class="cls-20" cx="592.02" cy="176.68" r="27.12"/><circle class="cls-21" cx="557.58" cy="175.86" r="27.12"/><circle class="cls-22" cx="574.38" cy="171.86" r="27.12"/><circle class="cls-23" cx="682.03" cy="141.3" r="27.12"/><circle class="cls-24" cx="531.13" cy="175.58" r="27.12"/></g><path class="cls-25" d="M176.66,118.4C188.1,99,199.43,81.35,224.85,80.85c14.74-.29,27.51,6.77,36.93,17.31,13,14.59,17.78,49.1,37.82,56.89,16,6.22,22.1-8.3,36.27-9.49,16.7-1.4,23.53,18.81,40.53,8.84,27.78-16.29,42-75.53,79.83-38.91C473.33,132,490.34,166,514,173.16c12.78,3.89,29.48,1.3,42.88,1.3,12.71,0,26,1.12,38.68,0,26-2.31,33.12-30.73,56.69-35.64,11.46-2.39,24.23,5.53,35.7,5.68,23.13.3,36-25.52,47.12-42.25,7.45-11.17,24-46.21,42.41-40.89,25.27,7.32,28.58,53.11,50.27,66.45,7.2,4.43,15,5.75,22.63,9.86s16,16.55,25.64,17.17c30.74,2,35.28-47,60.87-54.09,3.65,22.53-2.36,63.47,14.48,81.31,10.32,10.93,35.09,17.38,48.36,23.6q168.44,79.05,337.22,157.4H-223.2Q-56.13,284.83,111,206.62c14.28-6.72,39.22-13.18,50.23-24.88C175.64,166.4,172.09,137.64,176.66,118.4Z"/><path class="cls-25" d="M-202.34,353.3q574.63,0,1149.26-.11l368.79,0"/><path class="cls-25" d="M-182.21,343.87q738.73-.11,1477.47-.24"/><path class="cls-25" d="M-162.8,334.79q719.18-.14,1438.36-.35"/><path class="cls-25" d="M-144.11,326q700.35-.16,1400.69-.44"/><path class="cls-25" d="M-126.12,317.62q682.22-.17,1364.45-.53"/><path class="cls-25" d="M-108.8,309.51q664.8-.17,1329.59-.61"/><path class="cls-25" d="M-92.16,301.73q648-.16,1296.1-.68"/><path class="cls-25" d="M-76.18,294.25q632-.14,1263.94-.74"/><path class="cls-25" d="M-60.84,287.07q616.55-.12,1233.1-.8"/><path class="cls-25" d="M-46.14,280.19q601.77-.11,1203.53-.85"/><path class="cls-25" d="M-32,273.59q587.61-.09,1175.22-.89"/><path class="cls-25" d="M-18.57,267.29q574.07-.07,1148.14-.93"/><path class="cls-25" d="M-5.68,261.25q561.13-.05,1122.26-1"/><path class="cls-25" d="M6.63,255.49q548.77,0,1097.55-1"/><path class="cls-25" d="M18.37,250c358,0,716-1,1074-1"/><path class="cls-25" d="M29.56,244.75c350.51,0,701-1,1051.54-1"/><path class="cls-25" d="M40.22,239.76c343.39,0,686.79-1,1030.18-1"/><path class="cls-25" d="M50.36,235c336.62,0,673.25-1,1009.87-1"/><path class="cls-25" d="M60,230.51c330.24,0,660.4-1,990.61-1"/><path class="cls-25" d="M69.11,226.23c85.61,0,171.46-2.14,257.05.1,75.47,2,150.35-.61,225.79-.62,41.55,0,83.81-2.56,125.29-.5,17.25.86,34.06,2.93,51.38,1.92s34.14-4.84,51.46-4.37c87.1,2.37,174.15,2.45,261.38,2.44"/><path class="cls-25" d="M77.75,222.18c83.87,0,169-4.56,252.73.74,30.76,1.95,61.25,4.44,92.1,4.77,21.48.24,41.8-4.83,63.1-5.93,22-1.13,44.24-.1,66.24-.1,41.8,0,85.37-4,126.94-.53,15.12,1.27,29.06,4,44.36,2.53,18.61-1.83,36.46-9,55.29-7.75,14.56,1,28.62,4.93,43.27,5.45,18.71.66,37.58-.07,56.29-.1q77.38-.11,154.75-.1"/><path class="cls-25" d="M85.93,218.35c81.29,0,165.19-6.22,246.26,1,30.11,2.68,59.65,6.65,90,7.21,20.06.37,37.55-5,57.12-7.73,23.61-3.34,48.92-1,72.71-1,23,0,46.1.2,69.14,0,19.23-.18,38.7-3.17,57.77-.31,14.64,2.19,26.88,5.23,41.83,2.85,19.24-3.06,38-12.62,57.65-10,14.31,1.88,27.2,6.77,41.84,7.2,16.77.49,33.68-.06,50.45-.09q77-.11,154-.1"/><path class="cls-25" d="M93.64,214.75c80.6.46,162.8-6.16,243.21,1.47,30.29,2.87,60.18,6.86,90.67,7.15,20.44.2,37.79-7,57.72-8.91,21.75-2.14,44.76-.21,66.62-.22,23,0,46.1-.56,69.14-.23,19.14.27,38.63-3.44,57.55,0,14.23,2.61,25.19,6.18,40,3.82,18.08-2.89,35.64-12.59,54.11-11,13.68,1.15,26.31,6.46,40.19,7,16.64.64,33.44.23,50.1.25,51.34,0,102.69-.26,154-.3"/><path class="cls-25" d="M100.91,211.35c51.3-.77,102.21-7.36,153.65-4.41,28,1.6,55.53,6,83.7,7,29.52,1.08,59.4.77,88.79,3.49,21.13,2,36.84-3.84,57.46-6.26,21.85-2.56,45.37-.28,67.38-.33,21-.05,42.06-1.8,63.08-1,19.33.75,40.14-1.75,59.23.6,15.08,1.85,28.23,6.22,43.69,4.63,17.46-1.8,34.13-9.1,51.73-9.14,30.11-.08,60.73,5.9,91.06,6.31,49.55.68,99.42-2,149.08-1.88"/><path class="cls-25" d="M107.75,208.13c29-2,57-9.82,86.14-10.54A483.38,483.38,0,0,1,254.51,200c28.9,2.95,52.63,14,82.34,12.42,32.42-1.71,64.68-7.54,96.73-.45,18.65,4.12,32.86-.82,51.15-3.5,21.65-3.17,45.43-.58,67.28-.8,20.74-.21,42.07-3.82,62.72-1.86,19.93,1.89,39.78-.42,59.53,1.52,13.79,1.35,26.81,5.63,40.85,5.54,18.17-.11,35.42-5.81,53.4-7.34,29.74-2.53,57.73,4.67,87.13,6.06,20.36,1,40-4.64,60.18-5.91,28.87-1.81,58.22,1.16,87.12,1.53"/><path class="cls-25" d="M114.18,205.1c29-4,56-16.83,85.46-16.92a326.64,326.64,0,0,1,58.93,5.43c14.73,2.7,26.29,9.78,39.83,15.4,13.92,5.78,26.61,4.22,41.31,1.92,32.26-5,62.79-16.64,94.7-5.53,19.8,6.9,30.84,3,50.48-.12,21.43-3.4,45.43-.5,67.12-.64,39.42-.25,77.86-1.69,117.09-.43,16.23.52,32,5.89,48.24,6.44,15.8.53,31.27-2.18,46.69-5.3,12.48-2.53,24.55-5.33,37.38-4.4,17,1.24,33,8.57,49.9,10.31,20.19,2.08,38.22-7,57.87-9.41,28.55-3.52,58.74,1.62,87.39,2.33"/><path class="cls-25" d="M120.21,202.26c28.65-5.71,54.83-23.39,84.49-22.69a250.81,250.81,0,0,1,57,8.54C277,192.24,287,201.39,300.5,208.74c12.56,6.86,24,4.67,37.36,1.5,31.06-7.36,66.35-27.8,97-11.32,20.43,11,29.07,8.21,50.21,4.18,21.32-4.06,45.47-.83,67.14-1.27,20.44-.41,42.32-6.83,62.5-3.11,19.38,3.57,34.84,3.09,54.54,3.18,32.22.15,61.67,12.53,93.92,2.41,11.16-3.5,20.8-8.4,32.83-7.72,17.67,1,33.71,11.21,51.07,14.14,20.69,3.49,36.33-8.59,55.91-12.31,27.95-5.31,59.47,2,87.66,3"/><path class="cls-25" d="M125.85,199.62c26.62-6.17,50-24.74,77.24-26.57,17.86-1.2,37.51,4.54,54.82,8.83,20.75,5.14,28.15,16.26,44.94,26.54,12.52,7.66,24.91,3.89,38.31-.23C371.1,199,405,175.92,434.89,193.4c8.71,5.1,16.83,13.31,27.68,13.33,7.54,0,15-4.72,22.2-6.27,21.09-4.55,46-1,67.4-1.25,21.21-.24,42-7.27,62.85-2.92,8.92,1.86,16.57,5.11,25.67,5.63,9.74.55,19.17-2.45,28.85-2.74,29.26-.88,60.57,15.19,89.22,4.78,13.38-4.86,21.21-13,36.53-11.14,18.47,2.18,34.11,15.85,52.88,17.4,18.56,1.54,31.4-10.53,48.85-14.79,27.4-6.68,60.26,2.19,88.06,3.36"/><path class="cls-25" d="M131.11,197.17c26.5-6.31,49.54-26.09,76.76-27.31,17.17-.77,36.42,5.46,53,9.74,18,4.63,27.85,14.36,42.06,24.63,12.22,8.83,23.83,7,37.69,3,28.18-8,65.17-37,93.58-18.5,9.38,6.11,16.28,14.08,27.73,14.93,10.07.75,18.42-5.1,28.31-6.61,19.9-3,42,.25,62-.3,20.45-.57,42.52-8.59,62.67-3.47,9,2.29,16.15,6.6,25.79,6.71s19.13-2.64,28.73-3c28.31-1,60.91,14.4,88.06,3.76,11.36-4.45,20.08-11.66,33.1-10.68,18.08,1.37,33.86,14.86,51.88,17.3,18.44,2.5,31.75-9.08,48.92-13.86,28-7.78,60.08,1.15,88.42,2.8"/><path class="cls-25" d="M136,194.88c26.23-7,49.94-28.6,77.57-26.81,17.22,1.12,34.74,7.77,51.49,11.9,32,7.89,47.77,32.85,82.79,22.39,30.3-9,62.09-38.8,91.71-15.23,6.43,5.12,13.49,12.68,22,14.27,9.43,1.75,19.68-4.57,28.76-5.94,20.1-3,41.69-.76,62-1,18.29-.2,37.65-6.63,55.79-4.2,11.74,1.57,20.93,6.56,32.77,6.69,7.77.09,15.35-1.58,23.09-2.06,29.06-1.8,59.76,7.58,88.37,1.28,11.6-2.55,23.1-7.64,35.19-7.31,16.75.46,32.73,10.22,49.35,12.36,17.31,2.23,33.5-4.56,50.11-8.74,30.21-7.59,57.7-1.28,88.08,1.59"/><path class="cls-25" d="M140.55,192.74c26.27-7.77,50.39-31.4,78.51-26.61C236,169,251.64,177.26,268.5,180.86c28.85,6.16,55.15,24.37,85.24,15.47,29.44-8.7,59.69-41.78,87.55-15.22,6,5.75,12.64,14.5,21.19,16.8,9.27,2.5,19.89-3.42,28.87-4.65,19.93-2.73,41.05-.72,61.15-.9,18.19-.17,37.24-5.59,55.31-3.48,20,2.34,34.55,5,54.81,3.83,28.53-1.72,57.18-3.1,85.78-3.9,28.82-.81,56,2.61,84.63,4.13,16.75.89,34.52.6,51.15-2,11-1.69,22.26-6.47,33.32-7,16.75-.85,36.62,5.9,53.15,8"/><path class="cls-25" d="M144.78,190.75c26.51-8.81,52.4-34.81,80.69-26.34,17,5.08,31.08,15.22,48.92,18,25.12,4,58.49,13.8,83.26,7.41,16-4.13,29-14.4,43.7-21.41,17.4-8.3,27-9.73,40.78,4.74,6.75,7.08,11.16,15.57,20.41,19.54,10.39,4.46,18.77-.5,29.19-1.9,19.79-2.66,41.18-.11,61.05-.45,18.5-.31,37.16-3.88,55.58-2.32,19.17,1.63,35,3.87,54.26,2.4,28.59-2.17,55-14.61,83.86-9.8,14.14,2.36,27.23,6.33,41.75,6.08,13.35-.23,26.57-2.84,39.9-3.39,18.25-.75,34.94,6.3,52.89,6.05,15.15-.21,27.92-8.71,43.14-7.8,14.16.85,28.33,6.08,42.38,8.42"/><path class="cls-25" d="M148.68,188.92C176,178.85,202.61,150.45,231.75,163c14.78,6.35,26.66,16.94,42.74,20,15.65,3,31.71-.69,47.44-.89,15.35-.19,29.77,4.43,44.81-.09,24.86-7.47,54.54-46.26,76.26-17.66,5.66,7.45,10.79,20.31,19.37,25.11,9.59,5.38,19.88,1,29.79,0,20-2.14,40.62-.7,60.71-.82,18.46-.11,37.38-3.54,55.79-1.91s35.36,3.76,53.83,2c28.38-2.74,48.53-25.49,77.56-17.12,15.19,4.38,29.08,14.8,45.37,13.81,15.15-.93,28.43-11.19,43.56-12.56,18.34-1.66,31.85,12.49,49.25,14.87,16.18,2.21,28.28-9.86,44.25-9,13.61.77,26.81,6.74,40.28,9.57"/><path class="cls-25" d="M152.27,187.23c17-6.78,29.92-15.45,45.65-24.52,17.88-10.31,23.14-9.7,38.94-1.24,14.22,7.61,25.28,19.86,41.65,22.54,16.59,2.72,32.18-5.29,48.27-7.55,15.75-2.21,30.47,4,45.88-.6,24.38-7.3,52.13-48.92,72.28-17.81,5.33,8.23,9.8,22.3,18.36,28,9.47,6.29,19.78,2.44,29.93,1.58,19.79-1.68,40-.62,59.83-.69,18.38-.07,37-2.32,55.33-1.23,17.6,1,35.23,3.26,52.9,1.2,28.91-3.37,45.12-37.14,75.2-23.28,14.64,6.74,31,22.14,47.93,20.17,15.68-1.83,26.51-18.22,42.16-20.47,19.88-2.86,32.23,18.47,50,22.83,17,4.17,28.27-11.48,45-10.31,13,.91,24.81,7.47,37.7,10.8"/><path class="cls-25" d="M155.56,185.68c17.33-7.4,30.58-17.32,46.81-26.41,15.92-8.91,24.23-8.39,39.56,1.48,13.38,8.61,24.48,22.65,41.21,23.71,17.65,1.12,32.3-10.14,49.11-13.08,14.52-2.54,28.23,4.81,42.62,1.31,15.61-3.8,26.6-16.07,39.35-24.84,14.47-10,20.74-10.64,31.12,4.09,7.24,10.27,10.43,28.38,23.07,34.26,7.47,3.47,17.23.34,24.84-.35,19.77-1.8,40.24-.38,60-.46,34.31-.13,74.66,5.77,108.39,0,31.62-5.43,40.44-45.42,75-26,13.11,7.36,29,24.24,44.94,23,17.31-1.4,25.68-22.16,42.1-26,21.37-5,32.7,22.13,50.4,28.33C892.65,191.1,902.31,172.46,920,173c12.67.35,23.65,8.19,36.08,12.15"/><path class="cls-25" d="M158.57,184.22c17.12-7.77,30.51-18.39,46.72-27.36s24.84-7.49,39.82,2.85c12.89,8.91,23.43,23.32,40.1,24,18,.73,31.92-12.28,48.9-15.32,14.88-2.67,28.39,6.2,43.28,2.73,15.63-3.64,26.09-16.32,38.4-25.47,14-10.38,20.15-11,30.24,3.72,7.23,10.52,10.08,29.07,22.76,35.33,7.49,3.7,17.22.67,24.89-.07,19.66-1.92,40-.61,59.75-.61,34.12,0,73.91,5.56,107.52-.07,31.93-5.35,39-49,74.28-28.28,13.18,7.74,29.1,26,45.37,24.67,18.06-1.45,25.59-24.2,42.62-28.22,22.24-5.26,31.56,24.92,49.31,31.63,18.51,7,28.18-14,46-13.36,12.57.45,22.39,8.74,34.66,13.32"/><path class="cls-25" d="M161.26,181.92c16.21-8.23,30.18-19.56,46-28s25.6-6.79,40.16,3.48c12.74,9,22.87,23.84,39.5,24.68,17.86.91,31.24-12.49,48-15.47,14.83-2.64,27.86,6.36,42.82,3.27,15.47-3.2,26.08-16.94,38.1-25.94,13.93-10.44,20.32-11,30.49,3.56,7.39,10.61,10.35,28.92,23,35.42,7.46,3.83,17.1,1.25,24.83.52,19.6-1.85,39.72-.73,59.36-.73,33.71,0,73.53,5.59,106.67-.74,31.57-6,38.93-49.76,74-30.28,13.3,7.39,29.36,25.26,45.27,24.35,17.75-1,26.93-22.48,43.74-26.25,22.37-5,30.09,24.6,47.68,31.87s27.86-12.69,45-12.59c12.59.08,22.46,7.59,34.7,12.06"/><path class="cls-25" d="M163.65,178.54c15.4-8.68,29.79-20.67,45.38-28.59,16-8.12,26.4-6,40.54,4.31,12.8,9.37,22.18,24.31,38.94,25.91,17.67,1.69,30.66-12.52,47.14-15.36,14.75-2.54,27.44,7,42.37,3.8,15.4-3.28,25.91-17.58,37.83-26.63,13.91-10.56,20.51-11.26,30.91,3.23,17.09,23.81,16.81,39.55,48.33,37.1,19.47-1.51,39.18-.74,58.69-.74,33.67,0,72.65,4.91,105.71-2.16,30.92-6.61,39.43-48.42,74-31.82,13.77,6.62,29.52,22.83,45.19,22.32,17.22-.56,28.32-19.32,44.8-22.44,22.6-4.27,28.73,24.2,46.39,31.94,16.79,7.35,27.58-11.69,44-12.34,12.58-.5,22.25,5.88,34.55,10.05"/><path class="cls-25" d="M165.74,174.27c14.69-9.13,29.34-21.7,44.78-29.21,16-7.79,27.23-5.24,41,5.31,12.63,9.69,21.63,25.56,38.42,27.6,17.53,2.13,30-12.36,46.27-15,14.68-2.4,27,7.64,41.93,4.32,15.35-3.42,25.78-18.34,37.59-27.49,13.89-10.75,20.72-11.58,31.47,2.77,17.06,22.79,17.91,40.2,49,38.65,19.25-1,38.51-.65,57.78-.65,34,0,71.29,3.65,104.67-4.19,30.06-7.06,40.5-45.41,74.16-32.95,14.44,5.35,29.6,18.91,45.12,18.84,16.58-.07,29.69-14.93,45.81-17.07,22.87-3,27.49,23.75,45.4,31.87,16.11,7.3,27.36-11,43-12.56,12.54-1.28,21.77,3.73,34.24,7.42"/><path class="cls-25" d="M167.58,169.28c14.07-9.57,28.37-21.89,43.57-29.46,18.06-9,27.61-5.19,41.4,5.49,12.57,9.73,20.92,26.84,37.39,30.06,17.84,3.49,28.83-10.58,44.93-13.84s29.34,8.76,45.56,3.19c23.45-8.05,46.56-57.13,68.3-24,14.43,22,20.16,39.17,49.49,39.21,18.63,0,37.32-.36,56-.36,34.76,0,68.14.64,102.22-6.62,28.22-6,42.56-40.93,73-34.71,16.83,3.43,32.85,15.38,49.89,15.15,15.45-.21,31-11.87,46.28-10.82,22.2,1.52,25.57,24.5,44,32.46,15.7,6.78,26.73-11.75,41.87-13.83,12.32-1.69,20.59,1.48,33.19,4.45"/><path class="cls-25" d="M169.17,163.75c25.14-18.66,54.22-47.94,84.26-24,13.49,10.76,22.44,32.38,41.47,34,14.74,1.29,25.25-10.51,38.6-13.69,16.26-3.88,28.5,8.59,44.47,4,15.42-4.44,24.48-18.9,36.32-28.59,15.83-12.95,24.15-12.47,36.18,4.43,14.76,20.72,21.32,38.57,50.11,39,17.94.3,36-.24,53.92-.24,16.35,0,32.7.12,49.05,0,18.19-.13,33.45-5,50.85-9.52,15.6-4.07,24.93-8.61,37.42-18.91,12.9-10.64,22.39-17,40.18-15.59,16.63,1.31,32.38,8.7,48.82,9,13.63.22,27.53-3.06,41.2-2.85,26.36.39,27,23.65,48.32,32.08,15.08,6,26.7-12.23,40.78-15.4,11.89-2.68,19.59-.91,32.09,1.15"/><path class="cls-25" d="M170.54,157.87c24.85-20.08,53.73-48.49,83.64-24,13.61,11.16,21.48,33.84,40.33,37.24,15.76,2.84,27.54-11,42.07-13.38,15.72-2.58,27.36,10.65,43.56,4.45,27.05-10.35,45.09-63.67,72-24.25,14.46,21.14,22.91,37.59,50.59,39.95,17.05,1.45,34.86.12,52,.12,15.7,0,31.44.29,47.14,0,18.84-.34,32.44-7.33,50.23-11.91,15.07-3.87,25.13-7.17,37.81-16.22,13.11-9.35,22.69-16.45,39.07-18.8,29.85-4.29,65.4,2.76,95,7.24,12.78,1.93,15.9,2.57,26.24,12.84,5.62,5.58,13,17.14,21.07,19.56,12,3.63,23.21-9.43,32.64-14.3,14.09-7.27,22.87-6.48,38-5.22"/><path class="cls-25" d="M171.71,151.8c24.47-21.48,52.85-48.29,83.07-24C268.51,138.9,275.7,163.09,294,168.3c15.57,4.42,27-9.17,41.06-12,15.58-3.17,26.74,10.57,42.59,5.49,24-7.67,45.65-63.47,71.5-32.47,17.34,20.79,25.73,45.18,56.1,48,16.25,1.52,33.5.05,49.79.05,16.63,0,33.85,1.25,50.43,0,18.39-1.39,32-11.34,49.57-16,28.1-7.4,48.88-26.73,76.62-34.68,35.09-10.06,60.89.42,94.23,9.53,8.91,2.43,13.27,3.59,20.73,9.33,8,6.16,15.25,20.27,25.72,22.89,11.21,2.81,23.61-10.64,31.93-15.57,13.64-8.08,21.24-9.36,36.61-9.44"/><path class="cls-25" d="M172.71,145.74c23.63-22.5,52.43-48.65,82.55-24,13.72,11.24,20.48,37.33,38.36,43.6s28-10.33,44.12-11.76,24.6,13.23,41.67,5.58c14.4-6.45,22.58-21.67,34.14-31.74,15.61-13.6,23.79-14.25,37.49.79,15.94,17.5,25.64,41.91,51.12,47.61,16.39,3.67,36.47,1,53.17,1,15.95,0,32.41,1.13,48.3,0,19.39-1.38,31.38-14.55,49.58-19.51,12.75-3.47,24.45-4.25,36.64-10.54,13.37-6.91,25.63-15.79,39.06-22.62,15-7.62,34.8-16.09,52.07-12.35,16.2,3.51,31.45,17.08,46.86,22.86,8.33,3.13,13.29,4.63,20.47,10.26s15.24,19.73,25.26,21.32c10.85,1.73,23.5-11.65,31.22-16.89,13.2-8.95,19.72-12.11,35.24-13.63"/><path class="cls-25" d="M173.56,139.86c23.73-24.53,57.93-52.33,86.91-19.58,11.93,13.48,18,37.65,36.64,42.89,15.13,4.24,23.88-8.2,37.54-10.63,17-3,27,13.19,44.41,5.77,13.6-5.79,22.66-22.33,33.13-32.24,17.15-16.23,26.25-16,42,2.15,15,17.29,27.05,41.07,51.11,47.11,15.24,3.83,34.62,1,50.32,1,15.14,0,30.57,1,45.66,0,20.12-1.29,30.71-16,48.7-22.06,13.23-4.44,27.1-3.12,40.43-8.74,14.23-6,26-15.69,38.61-24.42,13.93-9.66,32.89-23.75,50.72-19.54s29.38,23.47,46,31.2c9.2,4.29,16.73,5.4,25.24,12.43,6.39,5.28,15.51,18.59,24.53,19,10.24.43,23.36-13.32,30.45-18.78,12.53-9.64,18.07-14.3,33.36-17.21"/><path class="cls-25" d="M174.27,134.33C197,108.93,232,81.55,260.74,114.68c12.1,13.95,17.45,39.07,35.83,45.83,16.8,6.17,25.13-8.28,40.6-9.67,15-1.34,24,13.52,39.51,7.41,30.91-12.16,43.85-73.73,79.32-31.86,14.9,17.59,28,40.93,51.39,47.91,14.33,4.27,33.6,1.57,48.52,1.57,14.31,0,29.59,1.6,43.76,0,22.33-2.52,32.66-21,53.33-26.28,11.5-2.95,24-.76,35.74-4.38,17.75-5.48,29.13-17.37,43-29.31C743,106.27,760.13,88,776.67,90.1c19.66,2.51,34.16,32.9,50.9,41.81,8.65,4.6,16.68,6,25,12.71,6.36,5.15,15.18,17.29,24.22,17.37,9.87.09,23.25-14.29,29.73-20,12-10.55,17-16.67,32.21-21"/><path class="cls-25" d="M174.87,129.35c21-25.46,56.16-53.77,85.43-20.58,12.57,14.25,18.69,45.1,39.09,51.11,15.3,4.51,24.44-10.35,38.49-10.93,17-.7,24.22,16.79,42.11,6.08,13-7.79,21-23.29,31.7-33.69,16.32-15.86,25.66-16.59,42.22-.49,17.38,16.89,30.92,46.27,56.21,53.21,14.17,3.89,31.38,1.42,46.05,1.42,13.73,0,27.82,1,41.51,0,23.3-1.69,31.44-21.68,52.34-28.43,12.12-3.91,26.82.36,39.42-2.51,18.82-4.29,29.69-18.3,42.57-31.71,10.73-11.17,29.84-36.74,48.37-30.29,21.3,7.41,29.76,38.92,50.29,49.54,6.72,3.48,13,3.69,19.53,8.63,6.76,5.12,14.63,16,23.72,17.7,22.24,4.13,43.7-36.3,64.29-43.77"/><path class="cls-25" d="M175.39,125.09c19.75-26,54.87-54.16,84.4-21.61,12.73,14,18.75,46.33,37.44,53.81,16.27,6.51,23.33-7.59,37.67-9.26,16-1.86,24.83,15.66,41,8.49,25.27-11.19,42.54-71.91,75.62-41.25,18.58,17.22,31.83,47.39,56.31,57.45,14,5.77,33.65,2.44,48.54,2.44,14.29,0,29.61,1.61,43.8,0,22-2.5,31.21-25.78,51.5-30.77,12.43-3.05,25.68,1.81,38.41-.37,19.47-3.33,29.88-19.34,42-33.71,11.24-13.29,27.93-40.69,47.1-35.23,21.25,6.06,30.28,43,49.24,54.11,8.19,4.79,16.39,6.15,24.1,12.11,7.24,5.59,13.59,14.49,23.15,15.79,26.27,3.56,38.24-42.29,62.08-47.93"/><path class="cls-25" d="M175.85,121.72C194.63,94.87,230,68.12,259.22,99c14.92,15.78,19,50,41,57.37,15.49,5.16,21.54-8,35.54-9.23,17.79-1.62,25,18.3,43.14,6.52,25-16.25,41.25-71.09,75.64-37.47,17.14,16.75,32.34,47.62,55.64,56.78,13.29,5.22,32.37,1.92,46.39,1.92,13.78,0,28.21,1.27,41.92,0,22.59-2.09,30.64-24.81,50.5-32,13.26-4.78,27.92,2.9,41.83,1.14,19.56-2.48,30.63-21.41,41.55-35.87,8.25-10.92,27.55-45.94,45.68-40.59,22.28,6.58,30.23,47.28,48.2,60.11,9.2,6.56,19.2,7.12,28.47,14.29,6.73,5.21,13.45,13.83,22.58,13.94,28,.35,35.22-44.14,60.14-51.07"/><path class="cls-25" d="M176.26,119.43c20-31.2,56.66-53.71,86.15-18.8,12.88,15.25,17.81,49.5,39.35,55.73,14.23,4.12,20.73-9.1,33.3-10.39,17.6-1.8,23.9,18.25,41.73,8.27,25.5-14.29,41.46-72.92,76.69-40.66,18.71,17.13,34.09,50.88,59.06,59.31,13.07,4.41,30.33,1.77,44.2,1.77,13.09,0,26.87,1.23,39.89,0,24.32-2.3,31.57-27.86,53.34-33.73,13.42-3.62,26.74,4.35,40.38,3.34,19.42-1.44,29.52-19.72,39.86-34.23,10.19-14.3,27.53-51.37,48.47-45.34,24.48,7,29.61,51.93,51.43,65.43,6.76,4.18,15.7,5.14,22.91,10,6.19,4.13,13.91,14.22,21.89,15,30.72,3.09,36.67-45.68,62.24-53.12"/><path class="cls-25" d="M915.66,119.71c4.45,16.86.84,33.77,10.14,49.63,9.12,15.56,16.94,25.5,33.71,35.1,32.67,18.71,67.61,33.67,101.53,49.93,75.25,36.07,150.16,72.82,225.51,108.69"/><path class="cls-25" d="M885.64,153.37c-2.28,10.15-7.5,20.53.59,29.2s27.47,13.95,37.46,20.62c31.56,21.07,67.36,36,101.18,53,70.49,35.51,140.46,72,211.28,106.86"/><path class="cls-25" d="M864.24,149c-7.68,28.44,3.54,43.94,30,57.62,98,50.69,193.33,106.2,291.55,156.38"/><path class="cls-25" d="M841.18,133.63c-13.13,25,.75,70.47,27.26,77.76,30.38,8.35,61.15,31.19,88.3,47,59.72,34.81,117.65,72,178.67,104.66"/><path class="cls-25" d="M817.09,116.71c-2.54,31.21-9.35,77.08,24.93,93.2,86,40.45,160.32,106.21,243,153.15"/><path class="cls-25" d="M791.86,71.41C794,116.5,778.3,171.9,815.65,204.62c22.35,19.58,48.51,34.67,72.74,51.71,49.76,35,93.82,75,146.31,106.72"/><path class="cls-25" d="M767.32,62.22c2.24,35.89-6.06,78.93,4.91,113.51,3.51,11.06,12.55,19,20.38,27.28,19.9,21.12,44.83,37,67.08,55.52,14.74,12.25,27.71,26.41,41.5,39.68,25.62,24.66,53.58,45.28,83.18,64.85"/><path class="cls-25" d="M743.55,89.33c-1.08,37.06-5.5,92.18,31.06,114.94,10.79,6.71,11.48,10.69,18.74,20.89,8.91,12.52,21.65,20.92,32.68,31.28,14,13.11,25.3,28.75,37.84,43.16,21.08,24.21,44.75,44,70.22,63.48"/><path class="cls-25" d="M716,129.39c.63,5.57,2.36,10.61,4.11,15.95,4.34,13.29,10.45,26.26,16.58,38.82a64.5,64.5,0,0,0,13.57,22.33,9.63,9.63,0,0,0,6.26.43,15.26,15.26,0,0,1,6.22-.12,26.87,26.87,0,0,1,5.93,19.35c4.22,10.38,16.4,20,23.65,27.73,10.34,11,18.12,24,26.54,36.47,18.77,27.75,40.14,50.21,65,72.71"/><path class="cls-25" d="M694,143.41c10.94,4.77,27.35,61.67,31,68.18,8.32,14.71,26.24,29.16,37.47,44.93,9.48,13.32,15.88,28.89,23.75,43.13,13,23.61,29.33,43.29,47.31,63.41"/><path class="cls-25" d="M674.77,142.17c6,24.05,18.54,45.06,24.63,68.17,4.32,16.39,21.2,30.14,29.57,46.44,18.71,36.42,30.51,72,54.27,106.28"/><path class="cls-25" d="M652,138.85c2.34,13.55,3.74,30.73,9.47,43.35,3.74,8.22,9.36,15.58,13.31,23.86,24.16,50.7,32.53,106.73,58.22,157"/><path class="cls-25" d="M619.39,162.8c11.71,12.76,18.81,28.56,24.89,44.54,18.94,49.8,20.37,105.16,38.36,155.72"/><path class="cls-25" d="M593.84,174.68c13.34,5,12.68,16.45,15.56,28.95C621.49,256,621.13,310.4,632.33,363.06"/><path class="cls-25" d="M569.06,174.46c4.42,9.2,2.8,21.46,3.39,31.35,3.11,52.45,4.91,104.88,9.57,157.25"/><path class="cls-25" d="M543.28,174.88C535.23,181,532.95,195.63,532,206.3c-4.49,51.56-1.59,105.16-.37,156.77"/><path class="cls-25" d="M520.34,174.46c-16.53,5.1-21.37,15-24.85,31.67C485,256.46,483.42,312,481.26,363.06"/><path class="cls-25" d="M490.08,156.34c-13.36,18.42-17.1,35.49-25.83,55.73-6.62,15.32-8.79,27.75-12,44.63-6.74,35.89-16.78,70-21.4,106.37"/><path class="cls-25" d="M456.63,115.88c-13.8,86.44-57.56,162.39-76.1,247.19"/><path class="cls-25" d="M429.33,104.33c4.14,37.44-12.52,64.21-23.7,99.66C388,259.91,348.79,306.75,330.16,363.06"/><path class="cls-25" d="M408.06,120.14c17,32.72-17.69,56.39-27.86,85.94-6.44,18.71-18.87,33.7-29.27,50.72-22.72,37.16-52,66.15-71.09,106.26"/><path class="cls-25" d="M389.21,143.41c20.45,23.61-23.39,47.34-33.77,66.06-31.71,57.17-90.76,97.49-125.93,153.6"/><path class="cls-25" d="M370.07,156.78c2.54,3.68,4,9.89,2.15,14.26-5.8,13.62-29.45,30-40.58,41.42-15.22,15.56-30.21,32-45.77,47.31-36.07,35.59-75.17,62.8-106.7,103.29"/><path class="cls-25" d="M349.05,148.83c3.43,22.91-24.87,51-39.11,64-57.56,52.52-127.47,92.67-181.07,150.19"/><path class="cls-25" d="M328.93,147.45c2.65,25.93-20,43.13-36.38,60.2-7.35,7.67-17.54,12.4-26,18.64C251.87,237,238,248.79,223.33,259.47c-48.52,35.22-100.08,62.88-144.77,103.6"/><path class="cls-25" d="M313.18,156.36c-2.81,7.42-4.35,18.19-10.68,23.66-5.54,4.79-11.74,2.17-17.84,5.05-7,3.29-7.51,8.81-11.55,15.14-7.63,12-19.37,17.09-31,24.48-15,9.56-29.47,20-44.09,30.08-55.52,38.48-116.51,65.94-169.79,108.3"/><path class="cls-25" d="M291.47,149.92c-2.65,8.41-3.66,26.46-11.9,31.54-7.16,4.41-12.14-2-19.71-2.16-12-.17-8.65,5.13-13.59,16.46-7.94,18.23-24.61,24-40.5,33.78-16.1,9.93-32.1,20.14-48.43,29.7C97.43,294.34,35.1,323.11-22,363.07"/><path class="cls-25" d="M275.17,122.63c-4.48,12.81-2.77,36.92-14.45,45.85-6.65,5.09-15.72,1.57-23.7,2.68-15.44,2.15-13.65,8.25-20.35,22.26-15.68,32.79-64.17,49-94.94,65.62C57,294-9.46,324.51-72.32,363.07"/><path class="cls-25" d="M255.68,92.2c-5.39,17.85-2.53,45.42-16.37,59.47-6.24,6.34-17.38,9.1-25.44,12.89-15.07,7.09-19.57,14.54-28.21,28.73C165.19,227,118.15,241.56,84,258.88c-68.85,34.9-138.88,67-206.57,104.19"/><path class="cls-25" d="M212.78,82.57c1.4,20.55,3.1,56.38-8.84,74.16-11.4,17-37.68,28.84-52.53,43-28.14,26.79-70.12,40.66-104.77,57.49-73.1,35.5-146.91,69.36-219.53,105.86"/></g><g class="cls-26"><g class="cls-27"><path class="cls-28" d="M176.66,394.44c11.44,19.41,22.77,37.06,48.19,37.56,14.74.29,27.51-6.77,36.93-17.31,13-14.59,17.78-49.1,37.82-56.89,16-6.22,22.1,8.3,36.27,9.49,16.7,1.4,23.53-18.81,40.53-8.84,27.78,16.29,42,75.53,79.83,38.91,17.09-16.53,34.09-50.48,57.75-57.68,12.78-3.89,29.48-1.3,42.88-1.3,12.71,0,26-1.12,38.68,0,26,2.31,33.12,30.73,56.69,35.64,11.46,2.39,24.23-5.53,35.7-5.68,23.13-.3,36,25.52,47.12,42.25,7.45,11.17,24,46.21,42.41,40.89,25.27-7.32,28.58-53.11,50.27-66.45,7.2-4.43,15-5.75,22.63-9.86s16-16.55,25.64-17.17c30.74-2,35.28,47,60.87,54.09,3.65-22.53-2.36-63.47,14.48-81.31,10.32-10.93,35.09-17.38,48.36-23.6q168.44-79.05,337.22-157.4H-223.2Q-56.13,228,111,306.22c14.28,6.72,39.22,13.18,50.23,24.88C175.64,346.45,172.09,375.2,176.66,394.44Z"/><g class="cls-5"><circle class="cls-29" cx="607.91" cy="358.25" r="47.45"/><circle class="cls-30" cx="650.5" cy="365.53" r="47.45"/><ellipse class="cls-31" cx="634.83" cy="356.2" rx="49.62" ry="48.47"/><ellipse class="cls-32" cx="479.13" cy="362.97" rx="89.89" ry="87.79"/><ellipse class="cls-33" cx="844.28" cy="388.97" rx="89.89" ry="87.79"/><ellipse class="cls-34" cx="896.27" cy="371.91" rx="89.89" ry="87.79"/><ellipse class="cls-35" cx="359.31" cy="372.72" rx="89.89" ry="87.79"/><ellipse class="cls-36" cx="371.9" cy="354.45" rx="89.89" ry="87.79"/><ellipse class="cls-37" cx="259.79" cy="396.28" rx="89.89" ry="87.79"/><circle class="cls-38" cx="538.3" cy="355.14" r="47.45"/><circle class="cls-39" cx="843.74" cy="377.07" r="47.45"/><circle class="cls-40" cx="817.3" cy="415.93" r="47.45"/><circle class="cls-41" cx="883.68" cy="379.77" r="47.45"/><circle class="cls-42" cx="608.45" cy="343.07" r="47.45"/><circle class="cls-43" cx="592.02" cy="336.16" r="27.12"/><circle class="cls-44" cx="557.58" cy="336.99" r="27.12"/><circle class="cls-45" cx="574.38" cy="340.98" r="27.12"/><circle class="cls-46" cx="682.03" cy="371.54" r="27.12"/><circle class="cls-47" cx="531.13" cy="337.26" r="27.12"/></g><path class="cls-25" d="M176.66,394.44c11.44,19.41,22.77,37.06,48.19,37.56,14.74.29,27.51-6.77,36.93-17.31,13-14.59,17.78-49.1,37.82-56.89,16-6.22,22.1,8.3,36.27,9.49,16.7,1.4,23.53-18.81,40.53-8.84,27.78,16.29,42,75.53,79.83,38.91,17.09-16.53,34.09-50.48,57.75-57.68,12.78-3.89,29.48-1.3,42.88-1.3,12.71,0,26-1.12,38.68,0,26,2.31,33.12,30.73,56.69,35.64,11.46,2.39,24.23-5.53,35.7-5.68,23.13-.3,36,25.52,47.12,42.25,7.45,11.17,24,46.21,42.41,40.89,25.27-7.32,28.58-53.11,50.27-66.45,7.2-4.43,15-5.75,22.63-9.86s16-16.55,25.64-17.17c30.74-2,35.28,47,60.87,54.09,3.65-22.53-2.36-63.47,14.48-81.31,10.32-10.93,35.09-17.38,48.36-23.6q168.44-79.05,337.22-157.4H-223.2Q-56.13,228,111,306.22c14.28,6.72,39.22,13.18,50.23,24.88C175.64,346.45,172.09,375.2,176.66,394.44Z"/><path class="cls-25" d="M-202.34,159.55q574.63,0,1149.26.11l368.79,0"/><path class="cls-25" d="M-182.21,169q738.73.11,1477.47.24"/><path class="cls-25" d="M-162.8,178.05q719.18.14,1438.36.35"/><path class="cls-25" d="M-144.11,186.8q700.35.16,1400.69.44"/><path class="cls-25" d="M-126.12,195.23q682.22.17,1364.45.53"/><path class="cls-25" d="M-108.8,203.33q664.8.17,1329.59.61"/><path class="cls-25" d="M-92.16,211.12q648,.16,1296.1.68"/><path class="cls-25" d="M-76.18,218.6q632,.14,1263.94.74"/><path class="cls-25" d="M-60.84,225.77q616.55.12,1233.1.8"/><path class="cls-25" d="M-46.14,232.66q601.77.11,1203.53.85"/><path class="cls-25" d="M-32,239.25q587.61.09,1175.22.89"/><path class="cls-25" d="M-18.57,245.56q574.07.07,1148.14.93"/><path class="cls-25" d="M-5.68,251.59q561.13.05,1122.26,1"/><path class="cls-25" d="M6.63,257.36q548.77,0,1097.55,1"/><path class="cls-25" d="M18.37,262.86c358,0,716,1,1074,1"/><path class="cls-25" d="M29.56,268.1c350.51,0,701,1,1051.54,1"/><path class="cls-25" d="M40.22,273.09c343.39,0,686.79,1,1030.18,1"/><path class="cls-25" d="M50.36,277.83c336.62,0,673.25,1,1009.87,1"/><path class="cls-25" d="M60,282.34c330.24,0,660.4,1,990.61,1"/><path class="cls-25" d="M69.11,286.61c85.61,0,171.46,2.14,257.05-.1,75.47-2,150.35.61,225.79.62,41.55,0,83.81,2.56,125.29.5,17.25-.86,34.06-2.93,51.38-1.92s34.14,4.84,51.46,4.37c87.1-2.37,174.15-2.45,261.38-2.44"/><path class="cls-25" d="M77.75,290.66c83.87,0,169,4.56,252.73-.74,30.76-1.95,61.25-4.44,92.1-4.77,21.48-.24,41.8,4.83,63.1,5.93,22,1.13,44.24.1,66.24.1,41.8,0,85.37,4,126.94.53,15.12-1.27,29.06-4,44.36-2.53,18.61,1.83,36.46,9,55.29,7.75,14.56-1,28.62-4.93,43.27-5.45,18.71-.66,37.58.07,56.29.1q77.38.11,154.75.1"/><path class="cls-25" d="M85.93,294.49c81.29,0,165.19,6.22,246.26-1,30.11-2.68,59.65-6.65,90-7.21,20.06-.37,37.55,5,57.12,7.73,23.61,3.34,48.92,1,72.71,1,23,0,46.1-.2,69.14,0,19.23.18,38.7,3.17,57.77.31,14.64-2.19,26.88-5.23,41.83-2.85,19.24,3.06,38,12.62,57.65,10,14.31-1.88,27.2-6.77,41.84-7.2,16.77-.49,33.68.06,50.45.09q77,.11,154,.1"/><path class="cls-25" d="M93.64,298.1c80.6-.46,162.8,6.16,243.21-1.47,30.29-2.87,60.18-6.86,90.67-7.15,20.44-.2,37.79,7,57.72,8.91,21.75,2.14,44.76.21,66.62.22,23,0,46.1.56,69.14.23,19.14-.27,38.63,3.44,57.55,0,14.23-2.61,25.19-6.18,40-3.82,18.08,2.89,35.64,12.59,54.11,11,13.68-1.15,26.31-6.46,40.19-7,16.64-.64,33.44-.23,50.1-.25,51.34,0,102.69.26,154,.3"/><path class="cls-25" d="M100.91,301.49c51.3.77,102.21,7.36,153.65,4.41,28-1.6,55.53-6,83.7-7,29.52-1.08,59.4-.77,88.79-3.49,21.13-2,36.84,3.84,57.46,6.26,21.85,2.56,45.37.28,67.38.33,21,.05,42.06,1.8,63.08,1,19.33-.75,40.14,1.75,59.23-.6,15.08-1.85,28.23-6.22,43.69-4.63,17.46,1.8,34.13,9.1,51.73,9.14,30.11.08,60.73-5.9,91.06-6.31,49.55-.68,99.42,2,149.08,1.88"/><path class="cls-25" d="M107.75,304.71c29,2,57,9.82,86.14,10.54a483.38,483.38,0,0,0,60.61-2.39c28.9-2.95,52.63-14,82.34-12.42,32.42,1.71,64.68,7.54,96.73.45,18.65-4.12,32.86.82,51.15,3.5,21.65,3.17,45.43.58,67.28.8,20.74.21,42.07,3.82,62.72,1.86,19.93-1.89,39.78.42,59.53-1.52,13.79-1.35,26.81-5.63,40.85-5.54,18.17.11,35.42,5.81,53.4,7.34,29.74,2.53,57.73-4.67,87.13-6.06,20.36-1,40,4.64,60.18,5.91,28.87,1.81,58.22-1.16,87.12-1.53"/><path class="cls-25" d="M114.18,307.75c29,4,56,16.83,85.46,16.92a326.64,326.64,0,0,0,58.93-5.43c14.73-2.7,26.29-9.78,39.83-15.4,13.92-5.78,26.61-4.22,41.31-1.92,32.26,5,62.79,16.64,94.7,5.53,19.8-6.89,30.84-3,50.48.12,21.43,3.4,45.43.5,67.12.64,39.42.25,77.86,1.69,117.09.43,16.23-.52,32-5.89,48.24-6.44,15.8-.53,31.27,2.18,46.69,5.3,12.48,2.53,24.55,5.33,37.38,4.4,17-1.24,33-8.57,49.9-10.31,20.19-2.08,38.22,7,57.87,9.41,28.55,3.52,58.74-1.62,87.39-2.33"/><path class="cls-25" d="M120.21,310.59C148.86,316.29,175,334,204.7,333.28a250.81,250.81,0,0,0,57-8.54C277,320.6,287,311.45,300.5,304.11c12.56-6.86,24-4.67,37.36-1.5,31.06,7.36,66.35,27.8,97,11.32,20.43-11,29.07-8.21,50.21-4.18,21.32,4.06,45.47.83,67.14,1.27,20.44.41,42.32,6.83,62.5,3.11,19.38-3.57,34.84-3.09,54.54-3.18,32.22-.15,61.67-12.53,93.92-2.41,11.16,3.5,20.8,8.4,32.83,7.72,17.67-1,33.71-11.21,51.07-14.14,20.69-3.49,36.33,8.59,55.91,12.31,27.95,5.31,59.47-2,87.66-3"/><path class="cls-25" d="M125.85,313.23c26.62,6.17,50,24.74,77.24,26.57,17.86,1.2,37.51-4.54,54.82-8.83,20.75-5.14,28.15-16.26,44.94-26.54,12.52-7.66,24.91-3.89,38.31.23,29.94,9.21,63.84,32.27,93.73,14.78,8.71-5.1,16.83-13.31,27.68-13.33,7.54,0,15,4.72,22.2,6.27,21.09,4.55,46,1,67.4,1.25,21.21.24,42,7.27,62.85,2.92,8.92-1.86,16.57-5.11,25.67-5.63,9.74-.55,19.17,2.45,28.85,2.74,29.26.88,60.57-15.19,89.22-4.78,13.38,4.86,21.21,13,36.53,11.14,18.47-2.18,34.11-15.85,52.88-17.4,18.56-1.54,31.4,10.53,48.85,14.79,27.4,6.68,60.26-2.19,88.06-3.36"/><path class="cls-25" d="M131.11,315.67c26.5,6.31,49.54,26.09,76.76,27.31,17.17.77,36.42-5.46,53-9.74,18-4.63,27.85-14.36,42.06-24.63,12.22-8.83,23.83-7,37.69-3,28.18,8,65.17,37,93.58,18.5C443.63,318,450.53,310,462,309.18c10.07-.75,18.42,5.1,28.31,6.61,19.9,3,42-.25,62,.3,20.45.57,42.52,8.59,62.67,3.47,9-2.29,16.15-6.6,25.79-6.71s19.13,2.64,28.73,3c28.31,1,60.91-14.4,88.06-3.76,11.36,4.45,20.08,11.66,33.1,10.68,18.08-1.37,33.86-14.86,51.88-17.3,18.44-2.5,31.75,9.08,48.92,13.86,28,7.78,60.08-1.15,88.42-2.8"/><path class="cls-25" d="M136,318c26.23,7,49.94,28.6,77.57,26.81,17.22-1.12,34.74-7.77,51.49-11.9,32-7.89,47.77-32.85,82.79-22.39,30.3,9,62.09,38.8,91.71,15.23,6.43-5.12,13.49-12.68,22-14.27,9.43-1.75,19.68,4.57,28.76,5.94,20.1,3,41.69.76,62,1,18.29.2,37.65,6.63,55.79,4.2,11.74-1.57,20.93-6.56,32.77-6.69,7.77-.09,15.35,1.58,23.09,2.06,29.06,1.8,59.76-7.58,88.37-1.28,11.6,2.55,23.1,7.64,35.19,7.31,16.75-.46,32.73-10.22,49.35-12.36,17.31-2.23,33.5,4.56,50.11,8.74,30.21,7.59,57.7,1.28,88.08-1.59"/><path class="cls-25" d="M140.55,320.11c26.27,7.77,50.39,31.4,78.51,26.61C236,343.83,251.64,335.58,268.5,332c28.85-6.16,55.15-24.37,85.24-15.47,29.44,8.7,59.69,41.78,87.55,15.22,6-5.75,12.64-14.5,21.19-16.8,9.27-2.5,19.89,3.42,28.87,4.65,19.93,2.73,41.05.72,61.15.9,18.19.17,37.24,5.59,55.31,3.48,20-2.34,34.55-5,54.81-3.83,28.53,1.72,57.18,3.1,85.78,3.9,28.82.81,56-2.61,84.63-4.13,16.75-.89,34.52-.6,51.15,2,11,1.69,22.26,6.47,33.32,7,16.75.85,36.62-5.9,53.15-8"/><path class="cls-25" d="M144.78,322.09c26.51,8.81,52.4,34.81,80.69,26.34,17-5.08,31.08-15.22,48.92-18,25.12-4,58.49-13.8,83.26-7.41,16,4.13,29,14.4,43.7,21.41,17.4,8.3,27,9.73,40.78-4.74,6.75-7.08,11.16-15.57,20.41-19.54,10.39-4.46,18.77.5,29.19,1.9,19.79,2.67,41.18.11,61.05.45,18.5.31,37.16,3.88,55.58,2.32,19.17-1.63,35-3.87,54.26-2.4,28.59,2.17,55,14.61,83.86,9.8,14.14-2.36,27.23-6.33,41.75-6.08,13.35.23,26.57,2.84,39.9,3.39,18.25.75,34.94-6.3,52.89-6.05,15.15.21,27.92,8.71,43.14,7.8,14.16-.85,28.33-6.08,42.38-8.42"/><path class="cls-25" d="M148.68,323.93C176,334,202.61,362.39,231.75,349.87c14.78-6.35,26.66-16.94,42.74-20,15.65-3,31.71.69,47.44.89,15.35.19,29.77-4.43,44.81.09,24.86,7.47,54.54,46.26,76.26,17.66,5.66-7.45,10.79-20.31,19.37-25.11,9.59-5.38,19.88-1,29.79,0,20,2.14,40.62.7,60.71.82,18.46.11,37.38,3.54,55.79,1.91s35.36-3.76,53.83-2c28.38,2.74,48.53,25.49,77.56,17.12,15.19-4.38,29.08-14.8,45.37-13.81,15.15.93,28.43,11.19,43.56,12.56,18.34,1.66,31.85-12.49,49.25-14.87,16.18-2.21,28.28,9.86,44.25,9,13.61-.77,26.81-6.74,40.28-9.57"/><path class="cls-25" d="M152.27,325.62c17,6.78,29.92,15.45,45.65,24.52,17.88,10.31,23.14,9.7,38.94,1.24,14.22-7.61,25.28-19.86,41.65-22.54,16.59-2.72,32.18,5.29,48.27,7.55,15.75,2.21,30.47-4,45.88.6,24.38,7.3,52.13,48.92,72.28,17.81,5.33-8.23,9.8-22.3,18.36-28,9.47-6.29,19.78-2.44,29.93-1.58,19.79,1.68,40,.62,59.83.69,18.38.07,37,2.32,55.33,1.23,17.6-1,35.23-3.26,52.9-1.2,28.91,3.37,45.12,37.14,75.2,23.28,14.64-6.74,31-22.14,47.93-20.17,15.68,1.83,26.51,18.22,42.16,20.47,19.88,2.86,32.23-18.47,50-22.83,17-4.17,28.27,11.48,45,10.31,13-.91,24.81-7.47,37.7-10.8"/><path class="cls-25" d="M155.56,327.17c17.33,7.4,30.58,17.32,46.81,26.41,15.92,8.91,24.23,8.39,39.56-1.48,13.38-8.61,24.48-22.65,41.21-23.71,17.65-1.12,32.3,10.14,49.11,13.08,14.52,2.54,28.23-4.81,42.62-1.31,15.61,3.8,26.6,16.07,39.35,24.84,14.47,10,20.74,10.64,31.12-4.09,7.24-10.27,10.43-28.38,23.07-34.26,7.47-3.47,17.23-.34,24.84.35,19.77,1.8,40.24.38,60,.46,34.31.13,74.66-5.77,108.39,0,31.62,5.43,40.44,45.42,75,26,13.11-7.36,29-24.24,44.94-23,17.31,1.4,25.68,22.16,42.1,26,21.37,5,32.7-22.13,50.4-28.33,18.51-6.49,28.17,12.15,45.89,11.66,12.67-.35,23.65-8.19,36.08-12.15"/><path class="cls-25" d="M158.57,328.62c17.12,7.77,30.51,18.39,46.72,27.36s24.84,7.49,39.82-2.85c12.89-8.91,23.43-23.32,40.1-24,18-.73,31.92,12.28,48.9,15.32,14.88,2.67,28.39-6.2,43.28-2.73,15.63,3.64,26.09,16.32,38.4,25.47,14,10.38,20.15,11,30.24-3.72,7.23-10.52,10.08-29.07,22.76-35.33,7.49-3.7,17.22-.67,24.89.07,19.66,1.92,40,.61,59.75.61,34.12,0,73.91-5.56,107.52.07,31.93,5.35,39,49,74.28,28.28,13.18-7.74,29.1-26,45.37-24.67,18.06,1.45,25.59,24.2,42.62,28.22,22.24,5.26,31.56-24.92,49.31-31.63,18.51-7,28.18,14,46,13.36,12.57-.45,22.39-8.74,34.66-13.32"/><path class="cls-25" d="M161.26,330.92c16.21,8.23,30.18,19.56,46,28s25.6,6.79,40.16-3.48c12.74-9,22.87-23.84,39.5-24.68,17.86-.91,31.24,12.49,48,15.47,14.83,2.64,27.86-6.36,42.82-3.27,15.47,3.2,26.08,16.94,38.1,25.94,13.93,10.44,20.32,11,30.49-3.56,7.39-10.61,10.35-28.92,23-35.42,7.46-3.83,17.1-1.25,24.83-.52,19.6,1.85,39.72.73,59.36.73,33.71,0,73.53-5.59,106.67.74,31.57,6,38.93,49.76,74,30.28,13.3-7.39,29.36-25.26,45.27-24.35,17.75,1,26.93,22.48,43.74,26.25,22.37,5,30.09-24.6,47.68-31.87s27.86,12.69,45,12.59c12.59-.08,22.46-7.59,34.7-12.06"/><path class="cls-25" d="M163.65,334.3C179.05,343,193.44,355,209,362.89c16,8.12,26.4,6,40.54-4.31,12.8-9.37,22.18-24.31,38.94-25.91,17.67-1.69,30.66,12.52,47.14,15.36,14.75,2.54,27.44-7,42.37-3.8,15.4,3.28,25.91,17.58,37.83,26.63,13.91,10.56,20.51,11.26,30.91-3.23,17.09-23.81,16.81-39.55,48.33-37.1,19.47,1.51,39.18.74,58.69.74,33.67,0,72.65-4.91,105.71,2.16,30.92,6.61,39.43,48.42,74,31.82,13.77-6.62,29.52-22.83,45.19-22.32,17.22.56,28.32,19.32,44.8,22.44,22.6,4.27,28.73-24.2,46.39-31.94,16.79-7.35,27.58,11.69,44,12.34,12.58.5,22.25-5.88,34.55-10.05"/><path class="cls-25" d="M165.74,338.58c14.69,9.13,29.34,21.7,44.78,29.2,16,7.79,27.23,5.24,41-5.31,12.63-9.69,21.63-25.56,38.42-27.6,17.53-2.13,30,12.36,46.27,15,14.68,2.4,27-7.64,41.93-4.32,15.35,3.42,25.78,18.34,37.59,27.49,13.89,10.75,20.72,11.58,31.47-2.77,17.06-22.79,17.91-40.2,49-38.65,19.25,1,38.51.65,57.78.65,34,0,71.29-3.65,104.67,4.19,30.06,7.06,40.5,45.41,74.16,32.95,14.44-5.35,29.6-18.91,45.12-18.84,16.58.07,29.69,14.93,45.81,17.07,22.87,3,27.49-23.75,45.4-31.87,16.11-7.3,27.36,11,43,12.56,12.54,1.28,21.77-3.73,34.24-7.42"/><path class="cls-25" d="M167.58,343.57c14.07,9.57,28.37,21.89,43.57,29.46,18.06,9,27.61,5.19,41.4-5.49,12.57-9.73,20.92-26.84,37.39-30.06,17.84-3.49,28.83,10.58,44.93,13.84s29.34-8.76,45.56-3.19c23.45,8.05,46.56,57.13,68.3,24,14.43-22,20.16-39.17,49.49-39.21,18.63,0,37.32.36,56,.36,34.76,0,68.14-.64,102.22,6.62,28.22,6,42.56,40.93,73,34.71,16.83-3.43,32.85-15.38,49.89-15.15,15.45.21,31,11.87,46.28,10.82,22.2-1.52,25.57-24.5,44-32.46,15.7-6.78,26.73,11.75,41.87,13.83,12.32,1.69,20.59-1.48,33.19-4.45"/><path class="cls-25" d="M169.17,349.09c25.14,18.66,54.22,47.94,84.26,24,13.49-10.76,22.44-32.38,41.47-34,14.74-1.29,25.25,10.51,38.6,13.69,16.26,3.88,28.5-8.59,44.47-4,15.42,4.44,24.48,18.9,36.32,28.59,15.83,12.95,24.15,12.47,36.18-4.43,14.76-20.72,21.32-38.57,50.11-39,17.94-.3,36,.24,53.92.24,16.35,0,32.7-.12,49.05,0,18.19.13,33.45,5,50.85,9.52,15.6,4.07,24.93,8.61,37.42,18.91,12.9,10.64,22.39,17,40.18,15.59,16.63-1.31,32.38-8.7,48.82-9,13.63-.22,27.53,3.06,41.2,2.86,26.36-.39,27-23.65,48.32-32.08,15.08-6,26.7,12.23,40.78,15.4,11.89,2.68,19.59.91,32.09-1.15"/><path class="cls-25" d="M170.54,355c24.85,20.08,53.73,48.49,83.64,24,13.61-11.16,21.48-33.84,40.33-37.24,15.76-2.84,27.54,11,42.07,13.38,15.72,2.58,27.36-10.65,43.56-4.45,27.05,10.35,45.09,63.67,72,24.25,14.46-21.14,22.91-37.59,50.59-39.95,17.05-1.45,34.86-.12,52-.12,15.7,0,31.44-.29,47.14,0,18.84.34,32.44,7.33,50.23,11.91,15.07,3.88,25.13,7.17,37.81,16.22,13.11,9.35,22.69,16.45,39.07,18.8,29.85,4.29,65.4-2.76,95-7.24,12.78-1.93,15.9-2.57,26.24-12.84,5.62-5.58,13-17.14,21.07-19.56,12-3.63,23.21,9.43,32.64,14.3,14.09,7.27,22.87,6.48,38,5.22"/><path class="cls-25" d="M171.71,361c24.47,21.48,52.85,48.29,83.07,24,13.72-11.05,20.92-35.24,39.26-40.45,15.57-4.42,27,9.17,41.06,12,15.58,3.17,26.74-10.57,42.59-5.49,24,7.67,45.65,63.47,71.5,32.47,17.34-20.79,25.73-45.18,56.1-48,16.25-1.52,33.5-.05,49.79-.05,16.63,0,33.85-1.25,50.43,0,18.39,1.39,32,11.34,49.57,16,28.1,7.4,48.88,26.73,76.62,34.68,35.09,10.06,60.89-.42,94.23-9.53,8.91-2.43,13.27-3.59,20.73-9.33,8-6.16,15.25-20.27,25.72-22.89,11.21-2.81,23.61,10.64,31.93,15.57,13.64,8.08,21.24,9.36,36.61,9.44"/><path class="cls-25" d="M172.71,367.11c23.63,22.5,52.43,48.65,82.55,24,13.72-11.24,20.48-37.33,38.36-43.6s28,10.33,44.12,11.76,24.6-13.23,41.67-5.58c14.4,6.45,22.58,21.67,34.14,31.74,15.61,13.6,23.79,14.25,37.49-.79C467,367.11,476.68,342.7,502.16,337c16.39-3.67,36.47-1,53.17-1,15.95,0,32.41-1.13,48.3,0,19.39,1.38,31.38,14.55,49.58,19.51C666,359,677.66,359.8,689.85,366.1c13.37,6.91,25.63,15.79,39.06,22.62,15,7.62,34.8,16.09,52.07,12.35,16.2-3.51,31.45-17.08,46.86-22.86,8.33-3.13,13.29-4.63,20.47-10.26s15.24-19.73,25.26-21.32c10.85-1.73,23.5,11.65,31.22,16.89,13.2,8.95,19.72,12.11,35.24,13.63"/><path class="cls-25" d="M173.56,373c23.73,24.53,57.93,52.33,86.91,19.58,11.93-13.48,18-37.65,36.64-42.89,15.13-4.24,23.88,8.2,37.54,10.63,17,3,27-13.19,44.41-5.77,13.6,5.79,22.66,22.33,33.13,32.24,17.15,16.23,26.25,16,42-2.15,15-17.29,27.05-41.07,51.11-47.11,15.24-3.83,34.62-1,50.32-1,15.14,0,30.57-1,45.66,0,20.12,1.29,30.71,16,48.7,22.06,13.23,4.44,27.1,3.12,40.43,8.74,14.23,6,26,15.69,38.61,24.42,13.93,9.66,32.89,23.75,50.72,19.54s29.38-23.47,46-31.2c9.2-4.29,16.73-5.4,25.24-12.43,6.39-5.28,15.51-18.59,24.53-19,10.24-.43,23.36,13.32,30.45,18.78,12.53,9.64,18.07,14.3,33.36,17.21"/><path class="cls-25" d="M174.27,378.51C197,403.91,232,431.3,260.74,398.16c12.1-13.95,17.45-39.07,35.83-45.83,16.8-6.17,25.13,8.28,40.6,9.67,15,1.34,24-13.52,39.51-7.41,30.91,12.16,43.85,73.73,79.32,31.85,14.9-17.59,28-40.93,51.39-47.91,14.33-4.27,33.6-1.57,48.52-1.57,14.31,0,29.59-1.6,43.76,0C622,339.5,632.34,358,653,363.26c11.5,2.95,24,.76,35.74,4.38,17.75,5.48,29.13,17.37,43,29.31,11.23,9.63,28.32,27.91,44.87,25.79,19.66-2.51,34.16-32.9,50.9-41.81,8.65-4.6,16.68-6,25-12.71,6.36-5.15,15.18-17.29,24.22-17.37,9.87-.09,23.25,14.29,29.73,20,12,10.55,17,16.67,32.21,21"/><path class="cls-25" d="M174.87,383.49c21,25.46,56.16,53.77,85.43,20.58C272.88,389.82,279,359,299.39,353c15.3-4.51,24.44,10.35,38.49,10.93,17,.7,24.22-16.79,42.11-6.08,13,7.79,21,23.29,31.7,33.69,16.32,15.86,25.66,16.59,42.22.49,17.38-16.89,30.92-46.27,56.21-53.21,14.17-3.89,31.38-1.42,46.05-1.42,13.73,0,27.82-1,41.51,0C621,339.05,629.13,359,650,365.79c12.12,3.91,26.82-.36,39.42,2.51C708.27,372.6,719.13,386.6,732,400c10.73,11.17,29.84,36.74,48.37,30.29,21.3-7.41,29.76-38.92,50.29-49.54,6.72-3.48,13-3.69,19.53-8.63,6.76-5.12,14.63-16,23.72-17.7,22.24-4.13,43.7,36.3,64.29,43.77"/><path class="cls-25" d="M175.39,387.76c19.75,26,54.87,54.16,84.4,21.61,12.73-14,18.75-46.33,37.44-53.81,16.27-6.51,23.33,7.59,37.67,9.26,16,1.86,24.83-15.66,41-8.49,25.27,11.19,42.54,71.91,75.62,41.25,18.58-17.22,31.83-47.39,56.31-57.45,14-5.77,33.65-2.44,48.54-2.44,14.29,0,29.61-1.61,43.8,0,22,2.5,31.21,25.78,51.5,30.77,12.43,3.05,25.68-1.81,38.41.37,19.47,3.33,29.88,19.34,42,33.71,11.24,13.29,27.93,40.69,47.1,35.23,21.25-6.06,30.28-43,49.24-54.11,8.19-4.79,16.39-6.15,24.1-12.11,7.24-5.59,13.59-14.49,23.15-15.79C902,352.18,914,398,937.82,403.68"/><path class="cls-25" d="M175.85,391.12c18.78,26.85,54.18,53.6,83.38,22.72,14.92-15.78,19-50,41-57.37,15.49-5.16,21.54,8,35.54,9.23,17.79,1.62,25-18.3,43.14-6.52,25,16.25,41.25,71.09,75.64,37.47,17.14-16.75,32.34-47.62,55.64-56.78,13.29-5.22,32.37-1.92,46.39-1.92,13.78,0,28.21-1.27,41.92,0,22.59,2.09,30.64,24.81,50.5,32,13.26,4.78,27.92-2.9,41.83-1.14,19.56,2.48,30.63,21.41,41.55,35.87,8.25,10.92,27.55,45.94,45.68,40.59,22.28-6.58,30.23-47.28,48.2-60.11,9.2-6.56,19.2-7.12,28.47-14.29,6.73-5.21,13.45-13.83,22.58-13.94,28-.35,35.22,44.14,60.14,51.07"/><path class="cls-25" d="M176.26,393.41c20,31.2,56.66,53.71,86.15,18.8,12.88-15.25,17.81-49.5,39.35-55.73,14.23-4.12,20.73,9.1,33.3,10.39,17.6,1.8,23.9-18.25,41.73-8.27,25.5,14.29,41.46,72.92,76.69,40.66,18.71-17.13,34.09-50.88,59.06-59.31,13.07-4.41,30.33-1.77,44.2-1.77,13.09,0,26.87-1.23,39.89,0C621,340.49,628.22,366,650,371.92c13.42,3.62,26.74-4.35,40.38-3.34,19.42,1.44,29.52,19.72,39.86,34.23,10.19,14.3,27.53,51.37,48.47,45.34,24.48-7,29.61-51.93,51.43-65.43,6.76-4.18,15.7-5.14,22.91-10,6.19-4.13,13.91-14.22,21.89-15,30.72-3.09,36.67,45.68,62.24,53.12"/><path class="cls-25" d="M915.66,393.14c4.45-16.86.84-33.77,10.14-49.63,9.12-15.56,16.94-25.5,33.71-35.1,32.67-18.71,67.61-33.67,101.53-49.93,75.25-36.07,150.16-72.82,225.51-108.69"/><path class="cls-25" d="M885.64,359.48c-2.28-10.15-7.5-20.53.59-29.2s27.47-13.95,37.46-20.62c31.56-21.07,67.36-36,101.18-53,70.49-35.51,140.46-72,211.28-106.86"/><path class="cls-25" d="M864.24,363.8c-7.68-28.44,3.54-43.94,30-57.62,98-50.69,193.33-106.2,291.55-156.38"/><path class="cls-25" d="M841.18,379.22c-13.13-25,.75-70.47,27.26-77.76,30.38-8.35,61.15-31.19,88.3-47,59.72-34.81,117.65-72,178.67-104.66"/><path class="cls-25" d="M817.09,396.14c-2.54-31.21-9.35-77.08,24.93-93.2,86-40.45,160.32-106.21,243-153.15"/><path class="cls-25" d="M791.86,441.44c2.19-45.09-13.55-100.49,23.79-133.22,22.35-19.58,48.51-34.67,72.74-51.71,49.76-35,93.82-75,146.31-106.72"/><path class="cls-25" d="M767.32,450.63c2.24-35.89-6.06-78.93,4.91-113.51,3.51-11.06,12.55-19,20.38-27.28,19.9-21.12,44.83-37,67.08-55.52,14.74-12.25,27.71-26.41,41.5-39.68,25.62-24.66,53.58-45.28,83.18-64.85"/><path class="cls-25" d="M743.55,423.52c-1.08-37.06-5.5-92.18,31.06-114.94,10.79-6.71,11.48-10.69,18.74-20.89,8.91-12.52,21.65-20.92,32.68-31.28,14-13.11,25.3-28.75,37.84-43.16,21.08-24.21,44.75-44,70.22-63.48"/><path class="cls-25" d="M716,383.45c.63-5.57,2.36-10.61,4.11-15.95,4.34-13.29,10.45-26.26,16.58-38.82a64.5,64.5,0,0,1,13.57-22.33,9.63,9.63,0,0,1,6.26-.43,15.26,15.26,0,0,0,6.22.12,26.87,26.87,0,0,0,5.93-19.35c4.22-10.38,16.4-20,23.65-27.73,10.34-11,18.12-24,26.54-36.47,18.77-27.75,40.14-50.21,65-72.71"/><path class="cls-25" d="M694,369.43c10.94-4.77,27.35-61.67,31-68.18,8.32-14.71,26.24-29.16,37.47-44.93,9.48-13.32,15.88-28.89,23.75-43.13,13-23.61,29.33-43.29,47.31-63.41"/><path class="cls-25" d="M674.77,370.68c6-24.05,18.54-45.06,24.63-68.17,4.32-16.39,21.2-30.14,29.57-46.44,18.71-36.42,30.51-72,54.27-106.28"/><path class="cls-25" d="M652,374c2.34-13.55,3.74-30.73,9.47-43.35,3.74-8.22,9.36-15.58,13.31-23.86,24.16-50.7,32.53-106.73,58.22-157"/><path class="cls-25" d="M619.39,350c11.71-12.76,18.81-28.56,24.89-44.54,18.94-49.8,20.37-105.16,38.36-155.72"/><path class="cls-25" d="M593.84,338.16c13.34-5,12.68-16.45,15.56-28.95,12.09-52.34,11.72-106.77,22.93-159.43"/><path class="cls-25" d="M569.06,338.38c4.42-9.2,2.8-21.46,3.39-31.35,3.11-52.45,4.91-104.88,9.57-157.25"/><path class="cls-25" d="M543.28,338c-8.05-6.16-10.33-20.75-11.26-31.42-4.49-51.56-1.59-105.16-.37-156.77"/><path class="cls-25" d="M520.34,338.38c-16.53-5.1-21.37-15-24.85-31.67C485,256.38,483.42,200.83,481.26,149.78"/><path class="cls-25" d="M490.08,356.51C476.73,338.09,473,321,464.25,300.78c-6.62-15.32-8.79-27.75-12-44.63-6.74-35.89-16.78-70-21.4-106.37"/><path class="cls-25" d="M456.63,397c-13.8-86.44-57.56-162.39-76.1-247.19"/><path class="cls-25" d="M429.33,408.51c4.14-37.44-12.52-64.21-23.7-99.66C388,252.93,348.79,206.09,330.16,149.78"/><path class="cls-25" d="M408.06,392.7c17-32.72-17.69-56.39-27.86-85.94-6.44-18.71-18.87-33.7-29.27-50.72-22.72-37.16-52-66.14-71.09-106.26"/><path class="cls-25" d="M389.21,369.43c20.45-23.61-23.39-47.34-33.77-66.06-31.71-57.17-90.76-97.49-125.93-153.6"/><path class="cls-25" d="M370.07,356.06c2.54-3.68,4-9.89,2.15-14.26-5.8-13.62-29.45-30-40.58-41.42-15.22-15.56-30.21-32-45.77-47.31-36.07-35.59-75.17-62.8-106.7-103.29"/><path class="cls-25" d="M349.05,364c3.43-22.91-24.87-51-39.11-64-57.56-52.52-127.47-92.67-181.07-150.19"/><path class="cls-25" d="M328.93,365.4c2.65-25.93-20-43.13-36.38-60.2-7.35-7.67-17.54-12.4-26-18.64-14.64-10.75-28.48-22.51-43.19-33.19-48.52-35.22-100.08-62.88-144.77-103.6"/><path class="cls-25" d="M313.18,356.49c-2.81-7.42-4.35-18.19-10.68-23.66-5.54-4.79-11.74-2.17-17.84-5.05-7-3.29-7.51-8.81-11.55-15.14-7.63-12-19.37-17.09-31-24.48-15-9.56-29.47-20-44.09-30.08C142.51,219.6,81.53,192.14,28.25,149.78"/><path class="cls-25" d="M291.47,362.92c-2.65-8.41-3.66-26.46-11.9-31.54-7.16-4.41-12.14,2-19.71,2.16-12,.17-8.65-5.13-13.59-16.46-7.94-18.23-24.61-24-40.5-33.78-16.1-9.93-32.1-20.14-48.43-29.7C97.43,218.51,35.1,189.73-22,149.78"/><path class="cls-25" d="M275.17,390.21c-4.48-12.81-2.77-36.92-14.45-45.85-6.65-5.09-15.72-1.57-23.7-2.68-15.44-2.15-13.65-8.25-20.35-22.26-15.68-32.79-64.17-49-94.94-65.62-64.76-34.94-131.18-65.47-194-104"/><path class="cls-25" d="M255.68,420.64c-5.39-17.85-2.53-45.42-16.37-59.47-6.24-6.34-17.38-9.1-25.44-12.9-15.07-7.09-19.57-14.54-28.21-28.73C165.19,285.89,118.15,271.29,84,254,15.13,219.07-54.9,187-122.59,149.78"/><path class="cls-25" d="M212.78,430.27c1.4-20.55,3.1-56.38-8.84-74.16-11.4-17-37.68-28.84-52.53-43-28.14-26.79-70.12-40.66-104.77-57.49-73.1-35.5-146.91-69.36-219.53-105.86"/></g></g></g></g></svg>